<svg data-v-1c08c737="" width="69" height="68" viewBox="0 0 69 68" fill="none" xmlns="http://www.w3.org/2000/svg"><g opacity="0.4" clip-path="url(#clip0_578_3754)"><path d="M67.7902 14.549C67.403 14.162 66.7754 14.1622 66.3883 14.549L60.2382 20.6956C59.2244 21.7088 57.8765 22.2668 56.4429 22.2668C55.0566 22.2668 53.7514 21.7436 52.7499 20.793C52.8551 20.6953 52.9531 20.6014 53.042 20.5126C54.7681 18.7875 55.731 16.5048 55.7534 14.085C55.7757 11.6584 54.8503 9.38463 53.1474 7.68277C49.6376 4.17466 43.8787 4.22194 40.3104 7.78809C39.9982 8.10007 39.6285 8.51617 39.2187 9.01621C37.4307 8.2524 35.4897 7.85051 33.4867 7.85051H33.3959C25.3548 7.85051 18.813 14.3886 18.813 22.4251C18.813 26.3181 20.3299 29.9781 23.0843 32.7308C24.1693 33.8152 25.6573 35.3018 27.286 36.9289L3.66063 57.1413L21.7444 36.0284C22.1004 35.6127 22.0519 34.9873 21.6359 34.6315C21.22 34.2758 20.5942 34.3243 20.2382 34.7399L0.482598 57.8047C-0.139188 58.5307 -0.0997197 59.548 0.576418 60.2238C1.25442 60.9014 2.27274 60.9371 2.99685 60.3176L28.6922 38.334C32.388 42.0258 36.4054 46.0385 38.002 47.6329C36.3431 49.2911 32.6662 53.2912 32.6662 56.1725C32.6662 59.8916 35.6937 62.9175 39.4151 62.9175C43.1364 62.9175 46.164 59.8916 46.164 56.1725C46.164 53.291 42.4868 49.2905 40.828 47.6326L41.9122 46.5489C43.2415 45.2204 43.9737 43.454 43.9737 41.5751C43.9737 39.6962 43.2416 37.9298 41.9122 36.6012L40.6548 35.3446C40.2677 34.9577 39.6401 34.9577 39.253 35.3446C38.8659 35.7314 38.8659 36.3587 39.253 36.7456L40.5104 38.0023C41.4653 38.9567 41.9912 40.2256 41.9912 41.5751C41.9912 42.9246 41.4653 44.1936 40.5104 45.1479L39.4148 46.2429C37.0421 43.8731 29.2248 36.0655 25.177 32.0207L30.0223 26.3638C31.989 24.0677 33.7393 21.4983 35.2245 18.7269C36.6651 16.0388 38.3695 13.4152 39.7847 11.5127C40.7275 12.0583 41.6054 12.7299 42.3963 13.5204L45.6964 16.8184L44.8095 17.7048C44.3438 18.1703 43.5858 18.1704 43.12 17.7052C43.0863 17.6715 43.0545 17.6357 43.0257 17.5992C42.686 17.17 42.0625 17.0974 41.6333 17.4367C41.0629 17.8781 41.1971 18.683 41.7179 19.1058C42.3373 19.7249 43.151 20.0345 43.9647 20.0345C44.7784 20.0345 45.592 19.7249 46.2114 19.1058L49.3196 15.9995C50.5585 14.7614 50.5585 12.7468 49.3196 11.5087C48.0808 10.2706 46.065 10.2706 44.8262 11.5087L44.0068 12.3276L43.7984 12.1194C42.9531 11.2746 42.022 10.5467 41.0251 9.94297C41.277 9.64747 41.5085 9.393 41.7124 9.18926C44.5078 6.39555 49.0086 6.34827 51.7457 9.08394C53.0693 10.4066 53.7885 12.1763 53.7711 14.0668C53.7535 15.9643 52.9969 17.7559 51.6403 19.1117C50.1833 20.5677 46.2154 23.3912 42.0971 25.5956C39.3241 27.0799 36.7532 28.8292 34.4558 30.7947L31.3761 33.4294C30.9603 33.7852 30.9117 34.4106 31.2677 34.8263C31.625 35.2434 32.2515 35.2892 32.6654 34.9347L35.7451 32.3C37.9341 30.4273 40.386 28.7593 43.033 27.3423C46.2384 25.6265 49.2292 23.6305 51.2239 22.0747L51.2459 22.0968C52.6341 23.4841 54.4798 24.2483 56.4431 24.2483C58.4062 24.2483 60.2519 23.4843 61.6402 22.0968L67.7903 15.9502C68.1773 15.5633 68.1773 14.9359 67.7902 14.549ZM46.2278 12.9097C46.6937 12.4442 47.4517 12.4442 47.9176 12.9097C48.3835 13.3754 48.3835 14.1329 47.9176 14.5986L47.0982 15.4175L45.4084 13.7288L46.2278 12.9097ZM39.4151 60.9362C36.787 60.9362 34.6487 58.7992 34.6487 56.1725C34.6487 54.3781 37.3424 51.0893 39.4154 49.0204C41.4882 51.0876 44.1814 54.3751 44.1814 56.1725C44.1814 58.7992 42.0432 60.9362 39.4151 60.9362ZM33.4768 17.7915C32.0591 20.437 30.3901 22.8877 28.5162 25.0752L23.7975 30.5844C21.8549 28.3092 20.7953 25.4487 20.7953 22.4251C20.7953 15.4813 26.4478 9.83194 33.3958 9.83194H33.4865C35.0404 9.83194 36.5511 10.1118 37.9617 10.6463C36.5528 12.5705 34.9164 15.1051 33.4768 17.7915Z" fill="black"></path></g> <defs><clipPath id="clip0_578_3754"><rect width="68.039" height="68" fill="white" transform="translate(0.0415039)"></rect></clipPath></defs></svg>