<svg data-v-1c08c737="" width="52" height="65" viewBox="0 0 52 65" fill="none" xmlns="http://www.w3.org/2000/svg"><g opacity="0.4"><path d="M50.2829 63.0017H48.559V48.5287H50.2829C50.8346 48.5287 51.3173 48.0463 51.3173 47.495C51.3173 46.9436 50.8346 46.4612 50.2829 46.4612H1.32246C0.770795 46.4612 0.288086 46.9436 0.288086 47.495C0.288086 48.0463 0.770795 48.5287 1.32246 48.5287H3.04642V62.9328H1.32246C0.770795 62.9328 0.288086 63.4152 0.288086 63.9666C0.288086 64.5179 0.770795 65.0004 1.32246 65.0004H50.2829C50.8346 65.0004 51.3173 64.5179 51.3173 63.9666C51.3173 63.4152 50.8346 63.0017 50.2829 63.0017ZM46.4902 63.0017H41.3183V48.5287H46.4902V63.0017ZM19.5964 48.5287H24.7683V62.9328H19.5964V48.5287ZM17.5277 63.0017H12.3558V48.5287H17.5277V63.0017ZM26.8371 48.5287H32.009V62.9328H26.8371V48.5287ZM34.0777 48.5287H39.2496V62.9328H34.0777V48.5287ZM5.11518 48.5287H10.2871V62.9328H5.11518V48.5287Z" fill="black"></path> <path d="M5.73604 41.4292C5.18437 41.4292 4.70166 41.9116 4.70166 42.463C4.70166 43.0143 5.18437 43.4968 5.73604 43.4968H45.8698C46.4215 43.4968 46.9042 43.0143 46.9042 42.463C46.9042 41.9116 46.4215 41.4292 45.8698 41.4292H43.7321V37.363H45.8698C46.4215 37.363 46.9042 36.8805 46.9042 36.3292C46.9042 35.7778 46.4215 35.2954 45.8698 35.2954H5.73604C5.18437 35.2954 4.70166 35.7778 4.70166 36.3292C4.70166 36.8805 5.18437 37.363 5.73604 37.363H7.87375V41.4292H5.73604ZM24.7686 41.4292H18.4244V37.363H24.7686V41.4292ZM26.8373 37.363H33.1815V41.4292H26.8373V37.363ZM41.6634 41.4292H35.3192V37.363H41.6634V41.4292ZM9.9425 37.363H16.2867V41.4292H9.9425V37.363Z" fill="black"></path> <path d="M5.73641 32.3322H45.8702C46.4219 32.3322 46.9046 31.8498 46.9046 31.2984C46.9046 30.7471 46.4219 30.2647 45.8702 30.2647H44.491C43.9394 20.8228 36.354 13.1728 26.9066 12.6903V10.0025H34.699C35.2506 10.0025 35.7333 9.52007 35.7333 8.96872V3.73088C35.7333 3.17953 35.2506 2.69709 34.699 2.69709H26.8377V2.0079C26.8377 1.45655 26.355 0.974121 25.8033 0.974121C25.2516 0.974121 24.7689 1.45655 24.7689 2.0079V3.66196V8.8998V12.6214C15.3216 13.1728 7.66725 20.7538 7.18454 30.2647H5.80537C5.25371 30.2647 4.771 30.7471 4.771 31.2984C4.771 31.8498 5.18475 32.3322 5.73641 32.3322ZM33.5956 4.76466V7.93493H26.8377V4.76466H33.5956ZM25.8033 14.689C34.63 14.689 41.8706 21.5809 42.3533 30.2647H9.25329C9.736 21.5809 16.9766 14.689 25.8033 14.689Z" fill="black"></path></g></svg>