<svg data-v-1c08c737="" width="47" height="57" viewBox="0 0 47 57" fill="none" xmlns="http://www.w3.org/2000/svg"><g opacity="0.4"><path d="M13.2732 28.5827L7.96964 26.075L5.17531 32.1506H3.24209C2.45864 32.1506 1.70728 32.4616 1.15329 33.0153C0.599311 33.5689 0.288086 34.3199 0.288086 35.1029C0.288086 35.8859 0.599311 36.6368 1.15329 37.1905C1.70728 37.7441 2.45864 38.0552 3.24209 38.0552H6.69793C7.36055 38.054 8.00902 37.8635 8.5668 37.506C9.12457 37.1485 9.56838 36.639 9.84583 36.0376L13.2732 28.5827ZM8.54561 35.422C8.3828 35.7763 8.12156 36.0764 7.79298 36.2866C7.46441 36.4968 7.08233 36.6082 6.69223 36.6075H3.24209C2.83675 36.6075 2.44802 36.4466 2.1614 36.1601C1.87478 35.8737 1.71376 35.4852 1.71376 35.0801C1.71376 34.675 1.87478 34.2865 2.1614 34C2.44802 33.7135 2.83675 33.5526 3.24209 33.5526H5.76269C5.86001 33.5527 5.9553 33.5248 6.0372 33.4722C6.11909 33.4197 6.18415 33.3447 6.22461 33.2562L8.66537 27.9786L11.3913 29.2666L9.40672 33.5754L8.54561 35.422Z" fill="black"></path> <path d="M22.4605 9.2673C23.3777 9.2673 24.2744 8.99539 25.0369 8.48599C25.7995 7.97659 26.3937 7.25257 26.7445 6.40555C27.0952 5.55853 27.1867 4.62657 27.0073 3.72757C26.828 2.82858 26.3858 2.00295 25.7369 1.35515C25.0879 0.707351 24.2613 0.266489 23.3615 0.0883425C22.4618 -0.0898036 21.5294 0.00277148 20.6823 0.354355C19.8353 0.705939 19.1116 1.30073 18.6028 2.06348C18.094 2.82623 17.8231 3.72266 17.8242 4.63935C17.8257 5.86728 18.3149 7.0444 19.1842 7.91215C20.0535 8.77989 21.2319 9.2673 22.4605 9.2673ZM22.4605 1.48186C23.0854 1.48186 23.6962 1.66704 24.2157 2.01399C24.7353 2.36094 25.1402 2.85407 25.3793 3.43103C25.6185 4.00799 25.681 4.64285 25.5591 5.25534C25.4372 5.86784 25.1363 6.43045 24.6945 6.87203C24.2527 7.31362 23.6897 7.61434 23.0769 7.73617C22.464 7.858 21.8288 7.79547 21.2515 7.55649C20.6742 7.31751 20.1808 6.9128 19.8337 6.39356C19.4865 5.87431 19.3012 5.26384 19.3012 4.63935C19.3012 3.80193 19.6341 2.99881 20.2266 2.40667C20.819 1.81452 21.6226 1.48186 22.4605 1.48186Z" fill="black"></path> <path d="M6.11612 20.1133C6.55972 20.1187 6.9982 20.0181 7.395 19.8198C7.7918 19.6215 8.13542 19.3313 8.3972 18.9734L8.49415 18.848L10.1308 15.263H12.8681L10.0567 21.4013C9.68201 22.2293 9.64256 23.1701 9.94661 24.0264C10.2507 24.8828 10.8746 25.5883 11.6877 25.9951L19.9281 30.0132V38.4256C19.9281 39.2048 20.2378 39.9521 20.7891 40.5031C21.3404 41.0541 22.0882 41.3636 22.8678 41.3636C23.6475 41.3636 24.3952 41.0541 24.9465 40.5031C25.4979 39.9521 25.8076 39.2048 25.8076 38.4256V28.1153C25.8072 27.542 25.6469 26.9801 25.3447 26.4928C25.0425 26.0056 24.6103 25.6121 24.0968 25.3567L18.2914 22.507L20.1676 18.4091L21.1599 19.4122C21.4779 19.735 21.8569 19.9914 22.275 20.1665C22.693 20.3417 23.1417 20.432 23.5949 20.4324H26.2581C27.0267 20.4345 27.7663 20.1388 28.3214 19.6074C28.8765 19.076 29.2039 18.3503 29.2349 17.5827C29.2536 17.1814 29.1916 16.7805 29.0525 16.4036C28.9134 16.0266 28.7001 15.6815 28.4251 15.3884C28.1514 15.0993 27.8216 14.8689 27.4559 14.7111C27.0902 14.5534 26.6963 14.4716 26.298 14.4708H24.5872L22.0153 11.8947C21.8594 11.7395 21.6781 11.6123 21.4792 11.5185L17.1851 9.52369C16.9299 9.40385 16.6515 9.34159 16.3696 9.34131H7.66726C7.29044 9.34127 6.92141 9.44844 6.6033 9.6503C6.28519 9.85216 6.03116 10.1404 5.8709 10.4812L3.01955 16.7506C2.89127 17.0452 2.83968 17.3674 2.86959 17.6873C2.89951 18.0072 3.00995 18.3144 3.19063 18.5801C3.52329 19.0476 3.96158 19.43 4.46989 19.6964C4.9782 19.9628 5.54221 20.1056 6.11612 20.1133ZM4.31976 17.3547L7.17112 11.0853C7.2161 10.9882 7.28757 10.9056 7.37734 10.8471C7.4671 10.7887 7.57153 10.7567 7.67866 10.7548H16.3696C16.4448 10.7554 16.5188 10.773 16.5863 10.8061L20.8633 12.8408C20.916 12.8647 20.9642 12.8975 21.0059 12.9377L23.8572 15.7874C23.9508 15.8816 24.078 15.9349 24.2108 15.9356H26.2866C26.4938 15.9368 26.6985 15.9801 26.8884 16.0628C27.0783 16.1456 27.2493 16.266 27.3912 16.4169C27.5331 16.5677 27.6428 16.7458 27.7137 16.9404C27.7846 17.1349 27.8151 17.3418 27.8035 17.5485C27.7802 17.9462 27.6051 18.3197 27.3144 18.5922C27.0237 18.8647 26.6395 19.0154 26.241 19.0133H23.5835C23.3172 19.0131 23.0535 18.9601 22.8078 18.8574C22.5621 18.7547 22.3393 18.6042 22.1521 18.4148L20.236 16.477C20.1786 16.4189 20.108 16.3757 20.0301 16.3511C19.9522 16.3265 19.8695 16.3213 19.7891 16.3359C19.7088 16.3505 19.6332 16.3845 19.569 16.4349C19.5047 16.4853 19.4538 16.5506 19.4205 16.6252L16.6205 22.7464C16.5635 22.8683 16.5566 23.0076 16.6014 23.1345C16.6462 23.2614 16.7391 23.3656 16.86 23.4246L23.4923 26.6505C23.7671 26.7853 23.9985 26.9947 24.1598 27.2548C24.3212 27.5148 24.406 27.815 24.4047 28.121V38.437C24.4062 38.6376 24.3682 38.8365 24.2927 39.0224C24.2173 39.2083 24.106 39.3775 23.9652 39.5204C23.8243 39.6633 23.6566 39.7771 23.4718 39.8552C23.2869 39.9333 23.0885 39.9743 22.8878 39.9758C22.6871 39.9743 22.4886 39.9333 22.3038 39.8552C22.1189 39.7771 21.9513 39.6633 21.8104 39.5204C21.6696 39.3775 21.5582 39.2083 21.4828 39.0224C21.4074 38.8365 21.3694 38.6376 21.3709 38.437V29.4375C21.3713 29.3417 21.3448 29.2476 21.2944 29.166C21.244 29.0844 21.1717 29.0185 21.0857 28.9759L15.1321 26.0692L12.3378 24.7013C11.8575 24.4628 11.489 24.0469 11.3102 23.5416C11.1314 23.0363 11.1563 22.4813 11.3797 21.9941L11.853 20.9568L14.7728 14.562C14.8091 14.4841 14.8253 14.3983 14.8198 14.3125C14.8143 14.2268 14.7873 14.1437 14.7413 14.0711C14.6953 13.9985 14.6318 13.9386 14.5566 13.8969C14.4814 13.8552 14.3969 13.833 14.3109 13.8325H9.53774C9.44042 13.8324 9.34514 13.8603 9.26324 13.9129C9.18134 13.9654 9.11629 14.0404 9.07583 14.1288L7.26236 18.1185C6.25869 19.4521 3.99471 18.0558 4.31406 17.3547H4.31976Z" fill="black"></path> <path d="M40.9938 24.228V34.2021H29.5884V42.7512H19.6086V52.7252H9.62891V56.9998H46.6965V24.228H40.9938ZM45.2708 55.575H11.0546V54.1501H21.0343V44.1761H31.0141V35.6269H42.4195V25.6529H45.2708V55.575Z" fill="black"></path></g></svg>