<svg data-v-1c08c737="" width="59" height="58" viewBox="0 0 59 58" fill="none" xmlns="http://www.w3.org/2000/svg"><g opacity="0.4"><path d="M49.2643 36.7619V15.9814C49.2643 15.336 48.736 14.8901 48.0903 14.8901H43.5467C42.901 14.8901 42.3375 15.336 42.3375 15.9814V34.7319C41.5861 34.7554 40.8347 34.8493 40.1068 35.0253V22.1064C40.1068 21.461 39.555 20.9917 38.9092 20.9917H34.3657C33.7199 20.9917 33.1799 21.4493 33.1799 22.1064V39.6249C31.7828 41.5845 31.0314 43.9429 31.0431 46.3601C31.0431 52.7902 36.2559 58 42.6779 58C49.1117 58 54.3245 52.7902 54.3245 46.3718C54.3245 42.5232 52.4343 38.9326 49.2643 36.7619ZM44.6856 17.2369H46.9162V35.5181C46.2001 35.2365 45.4487 35.0253 44.6856 34.9079V17.2369ZM35.528 23.3384H37.7587V35.8349C36.9721 36.1987 36.2207 36.6445 35.528 37.1726V23.3384ZM50.6849 51.0888C49.0061 53.9166 45.9653 55.6415 42.6897 55.6415C37.5591 55.6415 33.4029 51.476 33.4029 46.3601C33.4029 42.6053 35.6689 39.2142 39.144 37.7827C39.2849 37.7593 39.4141 37.7006 39.5315 37.6302C40.5412 37.2547 41.6213 37.067 42.7014 37.067C42.948 37.067 43.1828 37.0787 43.4293 37.1022H43.4411C44.8499 37.2078 46.2236 37.6419 47.4328 38.3694C51.8471 40.986 53.3031 46.6769 50.6849 51.0888Z" fill="black"></path> <path d="M42.7016 45.4096C41.8798 45.4096 41.2223 44.7525 41.2223 43.9312C41.2223 43.1098 41.868 42.4527 42.6899 42.441C43.5117 42.441 44.1692 43.1098 44.1692 43.9194C44.1692 44.5648 44.6975 45.0928 45.3432 45.0928C46.0007 45.0928 46.529 44.5765 46.5408 43.9194C46.5408 42.3471 45.578 40.9273 44.1105 40.3524V39.3785C44.1105 38.7331 43.5821 38.2051 42.9364 38.2051C42.2907 38.2051 41.7624 38.7331 41.7624 39.3785V40.2233C39.7195 40.7513 38.4868 42.8399 39.0151 44.8816C39.4377 46.5713 40.9523 47.7446 42.6899 47.7446C43.5 47.7446 44.1574 48.4135 44.1574 49.2231C44.1574 50.0327 43.4882 50.6898 42.6781 50.6898C41.868 50.6898 41.2106 50.021 41.2106 49.2113C41.2106 48.566 40.6822 48.038 40.0365 48.038C39.3908 48.038 38.8742 48.5543 38.8859 49.1996V49.2113C38.8977 50.9479 40.0717 52.4733 41.7506 52.9075V53.4355C41.7506 54.0809 42.2789 54.6089 42.9247 54.6089C43.5704 54.6089 44.0987 54.0809 44.0987 53.4355V52.7901C46.0711 52.0157 47.0339 49.798 46.2707 47.8385C45.6954 46.3718 44.2748 45.4096 42.7016 45.4096Z" fill="black"></path> <path d="M20.5002 30.3787H15.9214C15.2756 30.3787 14.7473 30.9067 14.7473 31.552V49.9741C14.7473 50.6194 15.2756 51.1474 15.9214 51.1474H20.5002C21.1459 51.1474 21.6742 50.6194 21.6742 49.9741V31.552C21.6742 30.9067 21.1459 30.3787 20.5002 30.3787ZM19.3261 48.918H17.0954V32.7254H19.3261V48.918Z" fill="black"></path> <path d="M29.7751 27.6799H25.1963C24.5505 27.6799 24.0222 28.208 24.0222 28.8533V50.0914C24.0222 50.7368 24.5505 51.2648 25.1963 51.2648H29.7751C30.4208 51.2648 30.9491 50.7368 30.9491 50.0914V28.8533C30.9491 28.208 30.4208 27.6799 29.7751 27.6799ZM28.601 48.9181H26.3703V30.0267H28.601V48.9181Z" fill="black"></path> <path d="M11.225 40.4697H6.64622C6.00049 40.4697 5.47217 40.9977 5.47217 41.6431V49.9741C5.47217 50.6194 6.00049 51.1475 6.64622 51.1475H11.225C11.8707 51.1475 12.3991 50.6194 12.3991 49.9741V41.6431C12.3991 40.9977 11.8707 40.4697 11.225 40.4697ZM10.051 48.918H7.82027V42.8165H10.051V48.918Z" fill="black"></path> <path d="M49.0879 0L41.0574 0.0117338C40.4117 0 39.8834 0.528019 39.8716 1.17338C39.8599 1.81873 40.3882 2.34675 41.0339 2.35849C41.0457 2.35849 41.0457 2.35849 41.0574 2.35849L46.2584 2.34675L33.52 15.031L29.0704 10.6191C28.8473 10.4078 28.542 10.3022 28.2368 10.314C27.9315 10.3022 27.6263 10.4078 27.4032 10.6191L4.86148 33.1479C4.4036 33.6055 4.4036 34.3447 4.86148 34.7906C5.08455 35.0136 5.37806 35.1309 5.69505 35.1309C6.01204 35.1309 6.30556 35.0136 6.52862 34.7906L28.2485 13.0831L32.6982 17.5654C32.9095 17.8001 33.2148 17.9292 33.5317 17.9409C33.8487 17.9292 34.1423 17.7884 34.3653 17.5654L47.9138 4.01295L47.9021 9.23447C47.9021 9.89156 48.4187 10.4196 49.0762 10.4431C49.7336 10.4313 50.2502 9.89156 50.2502 9.23447L50.2619 1.18511C50.2619 0.539753 49.7336 0 49.0879 0Z" fill="black"></path></g></svg>