<svg data-v-1c08c737="" width="75" height="80" viewBox="0 0 75 80" fill="none" xmlns="http://www.w3.org/2000/svg"><g opacity="0.4" clip-path="url(#clip0_578_3711)"><path fill-rule="evenodd" clip-rule="evenodd" d="M62.5148 59.0179C61.0033 59.4499 59.3987 59.4499 57.8872 59.0179V53.5185L60.201 51.2327L62.5148 53.5185V59.0179ZM70.7358 15.219L42.4817 1.26246C40.7942 0.448005 38.9409 0.0246582 37.0627 0.0246582C35.1846 0.0246582 33.3312 0.448005 31.6438 1.26246L3.38732 15.219C2.3798 15.7144 1.53257 16.4781 0.941338 17.4241C0.350107 18.37 0.0384338 19.4605 0.0415267 20.5722C0.0415267 22.851 1.3257 24.9013 3.38963 25.923L11.6107 29.9847V43.4293C11.6107 51.1185 22.7911 57.1436 37.0627 57.1436C41.3503 57.1436 45.573 56.5836 49.2751 55.5253L47.9886 51.1322C44.6984 52.0739 40.9199 52.5722 37.0627 52.5722C24.7902 52.5722 16.2383 47.7516 16.2383 43.4293V32.2705L31.6438 39.8819C33.3275 40.7093 35.1821 41.1411 37.0627 41.1436C38.9346 41.1436 40.8065 40.7048 42.4817 39.8796L51.98 35.187L49.9114 31.0979L40.4108 35.7905C39.3685 36.2947 38.2233 36.5568 37.0627 36.5568C35.9021 36.5568 34.7569 36.2947 33.7146 35.7905L5.46282 21.8339C5.22412 21.7182 5.02314 21.5386 4.88281 21.3155C4.74248 21.0924 4.66846 20.8348 4.66918 20.5722C4.66918 20.0327 4.97229 19.5482 5.46051 19.3082L33.7146 5.35161C34.7569 4.84736 35.9021 4.58522 37.0627 4.58522C38.2233 4.58522 39.3685 4.84736 40.4108 5.35161L68.6626 19.3082C68.9017 19.424 69.1029 19.604 69.2433 19.8276C69.3836 20.0511 69.4574 20.3091 69.4563 20.5722C69.4569 20.8345 69.3832 21.0918 69.2433 21.3148C69.1034 21.5378 68.9031 21.7177 68.665 21.8339L60.0436 26.0945L37.8263 18.4145L36.2992 22.7299L57.8872 30.195V47.0545L53.2595 51.6259V61.9847L54.5391 62.6156C54.826 62.7573 57.4221 64.0007 60.201 64.0007C62.9799 64.0007 65.576 62.7573 65.8629 62.6156L67.1425 61.9847V51.6259L62.5148 47.0545V29.9847L70.7382 25.923C71.7451 25.4283 72.592 24.6652 73.1833 23.7201C73.7745 22.775 74.0864 21.6855 74.0839 20.5745C74.0839 18.2933 72.7998 16.2407 70.7358 15.219Z" fill="black"></path></g> <defs><clipPath id="clip0_578_3711"><rect width="74.0424" height="80" fill="white" transform="translate(0.0415039)"></rect></clipPath></defs></svg>