<svg data-v-1c08c737="" width="79" height="47" viewBox="0 0 79 47" fill="none" xmlns="http://www.w3.org/2000/svg"><g opacity="0.4"><path d="M75.6565 15.7676H73.7511V8.07422C73.7511 6.26818 72.2809 4.79883 70.4738 4.79883H65.596C65.2508 4.79883 64.918 4.85321 64.6052 4.95269V4.49414C64.6052 2.01612 62.5879 0 60.1085 0H54.0112C51.5318 0 49.5145 2.01612 49.5145 4.49414V17.9447H29.0888V4.49414C29.0888 2.01612 27.0715 0 24.5921 0H18.4948C16.0154 0 13.9981 2.01612 13.9981 4.49414V4.95269C13.6853 4.85321 13.3525 4.79883 13.0073 4.79883H8.1295C6.32243 4.79883 4.85223 6.26818 4.85223 8.07422V9.54997C4.85223 10.181 5.36409 10.6926 5.99546 10.6926C6.62683 10.6926 7.1387 10.181 7.1387 9.54997V8.07422C7.1387 7.52822 7.58318 7.08398 8.1295 7.08398H13.0073C13.5536 7.08398 13.9981 7.52822 13.9981 8.07422V37.9336C13.9981 38.4796 13.5536 38.9238 13.0073 38.9238H8.1295C7.58318 38.9238 7.1387 38.4796 7.1387 37.9336V14.439C7.1387 13.808 6.62683 13.2964 5.99546 13.2964C5.36409 13.2964 4.85223 13.808 4.85223 14.439V15.7676H2.94684C1.47603 15.7676 0.279297 16.9636 0.279297 18.4336V27.5742C0.279297 29.0442 1.47603 30.2402 2.94684 30.2402H4.85223V37.9336C4.85223 39.7396 6.32243 41.209 8.1295 41.209H13.0073C13.3525 41.209 13.6853 41.1546 13.9981 41.0551V41.5137C13.9981 43.9917 16.0154 46.0078 18.4948 46.0078H24.5921C27.0715 46.0078 29.0888 43.9917 29.0888 41.5137V28.0631H30.7527C31.3841 28.0631 31.8959 27.5515 31.8959 26.9205C31.8959 26.2895 31.3841 25.7779 30.7527 25.7779H29.0888V20.2299H49.5145V25.7779H35.7085C35.0772 25.7779 34.5653 26.2895 34.5653 26.9205C34.5653 27.5515 35.0772 28.0631 35.7085 28.0631H49.5145V41.5137C49.5145 43.9917 51.5318 46.0078 54.0112 46.0078H60.1085C62.5879 46.0078 64.6052 43.9917 64.6052 41.5137V41.0551C64.918 41.1546 65.2508 41.209 65.596 41.209H70.4738C72.2809 41.209 73.7511 39.7396 73.7511 37.9336V36.3907C73.7511 35.7597 73.2392 35.2481 72.6078 35.2481C71.9765 35.2481 71.4646 35.7597 71.4646 36.3907V37.9336C71.4646 38.4796 71.0201 38.9238 70.4738 38.9238H65.596C65.0497 38.9238 64.6052 38.4796 64.6052 37.9336V8.07422C64.6052 7.52822 65.0497 7.08398 65.596 7.08398H70.4738C71.0201 7.08398 71.4646 7.52822 71.4646 8.07422V31.459C71.4646 32.09 71.9765 32.6016 72.6078 32.6016C73.2392 32.6016 73.7511 32.09 73.7511 31.459V30.2402H75.6565C77.1273 30.2402 78.324 29.0442 78.324 27.5742V18.4336C78.324 16.9636 77.1273 15.7676 75.6565 15.7676ZM2.94684 27.9551C2.73679 27.9551 2.56576 27.7841 2.56576 27.5742V18.4336C2.56576 18.2237 2.73679 18.0527 2.94684 18.0527H4.85223V27.9551H2.94684ZM26.8023 41.5137C26.8023 42.7317 25.8107 43.7227 24.5921 43.7227H18.4948C17.2761 43.7227 16.2846 42.7317 16.2846 41.5137V4.49414C16.2846 3.27615 17.2761 2.28516 18.4948 2.28516H24.5921C25.8107 2.28516 26.8023 3.27615 26.8023 4.49414V41.5137ZM62.3187 41.5137C62.3187 42.7317 61.3272 43.7227 60.1085 43.7227H54.0112C52.7926 43.7227 51.801 42.7317 51.801 41.5137V4.49414C51.801 3.27615 52.7926 2.28516 54.0112 2.28516H60.1085C61.3272 2.28516 62.3187 3.27615 62.3187 4.49414V41.5137ZM76.0375 27.5742C76.0375 27.7841 75.8665 27.9551 75.6565 27.9551H73.7511V18.0527H75.6565C75.8665 18.0527 76.0375 18.2237 76.0375 18.4336V27.5742Z" fill="black"></path></g></svg>