<svg data-v-1c08c737="" width="66" height="65" viewBox="0 0 66 65" fill="none" xmlns="http://www.w3.org/2000/svg"><g opacity="0.4" clip-path="url(#clip0_1_676)"><path d="M65.3639 4.85251C65.223 2.27054 63.1684 0.217323 60.5849 0.0764053C55.372 -0.208224 45.1714 0.0686614 35.4173 5.11086C30.4449 7.68141 25.186 12.0396 20.9892 17.0679C20.9375 17.1299 20.8872 17.1922 20.8359 17.2543L11.3115 17.9896C9.74371 18.1107 8.34732 18.932 7.48024 20.2427L0.982356 30.0653C0.324743 31.0593 0.220201 32.3033 0.702518 33.393C1.18496 34.4827 2.17627 35.2422 3.35444 35.4246L11.3788 36.6667C11.3505 36.8226 11.322 36.9784 11.296 37.1343C11.0288 38.7313 11.5583 40.3734 12.7124 41.5267L23.8897 52.6977C24.8466 53.6541 26.1396 54.1813 27.4645 54.1813C27.7373 54.1813 28.0117 54.1588 28.2848 54.1132C28.4408 54.0872 28.5966 54.0588 28.7526 54.0305L29.9954 62.0504C30.178 63.2278 30.9379 64.2187 32.028 64.7008C32.4816 64.9013 32.9616 65.0004 33.4395 65.0004C34.1106 65.0002 34.777 64.805 35.3577 64.4212L45.186 57.9269C46.4975 57.0602 47.3191 55.6646 47.44 54.0979L48.1758 44.5791C48.2379 44.5278 48.3004 44.4775 48.3624 44.4258C53.3937 40.2314 57.7545 34.9756 60.3264 30.0059C65.3718 20.257 65.6483 10.062 65.3639 4.85251ZM43.0843 54.7498L33.683 60.962L32.4717 53.1461C36.4451 51.9785 40.3756 50.1085 44.1202 47.6033L43.6409 53.8044C43.6111 54.1912 43.4081 54.5359 43.0843 54.7498ZM26.5843 50.0047L15.4069 38.8337C15.1217 38.5485 14.9899 38.148 15.0545 37.7622C15.3868 35.7763 15.9032 33.8858 16.5424 32.1049L33.3134 48.8663C31.1732 49.6324 29.2563 50.0895 27.6564 50.3568C27.2697 50.4211 26.8695 50.2897 26.5843 50.0047ZM11.605 21.7869L17.8095 21.3079C15.3027 25.0504 13.4317 28.9787 12.2634 32.9498L4.44318 31.7393L10.6591 22.3432C10.8732 22.0195 11.2181 21.8167 11.605 21.7869ZM45.9217 41.501C42.8435 44.0671 39.8555 45.9231 37.1013 47.2662L18.1463 28.3221C19.9067 24.7288 22.0551 21.7366 23.9155 19.5076C27.7993 14.8541 32.6297 10.8397 37.1682 8.49365C46.1202 3.86583 55.552 3.61662 60.3775 3.87916C61.0162 3.91394 61.5242 4.42163 61.559 5.06008C61.822 9.88277 61.5722 19.309 56.9417 28.2561C54.5944 32.7918 50.5777 37.6194 45.9217 41.501Z" fill="black"></path> <path d="M44.9539 29.9918C47.3931 29.9915 49.8333 29.0635 51.6902 27.2075C53.4897 25.4093 54.4805 23.0182 54.4805 20.4751C54.4805 17.932 53.4896 15.5409 51.6902 13.7426C47.9758 10.0302 41.9319 10.0304 38.2176 13.7426C36.4182 15.5409 35.4272 17.932 35.4272 20.4751C35.4272 23.0182 36.4183 25.4093 38.2176 27.2075C40.075 29.0639 42.5139 29.992 44.9539 29.9918ZM40.912 16.4356C42.0262 15.3218 43.49 14.765 44.9537 14.765C46.4175 14.765 47.8812 15.3218 48.9955 16.4356C50.0751 17.5146 50.6696 18.9491 50.6696 20.475C50.6696 22.0008 50.0751 23.4355 48.9955 24.5145C46.767 26.7419 43.1405 26.7418 40.9118 24.5145C39.8323 23.4355 39.2376 22.0009 39.2376 20.4751C39.2376 18.9492 39.8324 17.5146 40.912 16.4356Z" fill="black"></path> <path d="M2.34722 53.5665C2.83487 53.5665 3.32252 53.3806 3.69446 53.0086L9.91529 46.7914C10.6594 46.0477 10.6594 44.842 9.91529 44.0983C9.1713 43.3546 7.96481 43.3546 7.22069 44.0983L0.999983 50.3156C0.255865 51.0593 0.255865 52.2649 0.999983 53.0086C1.37191 53.3805 1.85957 53.5665 2.34722 53.5665Z" fill="black"></path> <path d="M15.616 49.7958C14.872 49.0521 13.6655 49.0521 12.9214 49.7958L0.961409 61.7491C0.217291 62.4928 0.217291 63.6984 0.961409 64.4421C1.33347 64.814 1.82099 64.9998 2.30865 64.9998C2.7963 64.9998 3.28395 64.814 3.65588 64.442L15.6159 52.4889C16.3601 51.7452 16.3601 50.5395 15.616 49.7958Z" fill="black"></path> <path d="M18.6227 55.4938L12.4018 61.7111C11.6577 62.4548 11.6577 63.6604 12.4018 64.4041C12.7739 64.776 13.2615 64.962 13.7491 64.962C14.2366 64.962 14.7244 64.7761 15.0963 64.4041L21.3171 58.1869C22.0613 57.4432 22.0613 56.2375 21.3171 55.4938C20.5732 54.7501 19.3667 54.7501 18.6227 55.4938Z" fill="black"></path></g> <defs><clipPath id="clip0_1_676"><rect width="65.0373" height="65" fill="white" transform="translate(0.40332)"></rect></clipPath></defs></svg>