<svg data-v-1c08c737="" width="71" height="65" viewBox="0 0 71 65" fill="none" xmlns="http://www.w3.org/2000/svg"><path opacity="0.4" d="M64.7293 26.7002C64.3372 26.6998 63.9461 26.7387 63.5618 26.8162L52.4703 9.94469C53.1234 9.3096 53.6173 8.53103 53.9123 7.67166C54.2072 6.81228 54.295 5.89611 54.1685 4.99688C54.042 4.09766 53.7047 3.2405 53.1839 2.49442C52.663 1.74834 51.9732 1.13417 51.1698 0.701351C50.3664 0.268534 49.472 0.029161 48.5584 0.00250098C47.6449 -0.0241591 46.7379 0.162639 45.9103 0.547857C45.0828 0.933075 44.3578 1.50595 43.7938 2.22037C43.2297 2.9348 42.8424 3.7708 42.663 4.6611H28.4191C28.2397 3.7708 27.8524 2.9348 27.2884 2.22037C26.7243 1.50595 25.9994 0.933075 25.1718 0.547857C24.3442 0.162639 23.4372 -0.0241591 22.5237 0.00250098C21.6102 0.029161 20.7157 0.268534 19.9123 0.701351C19.109 1.13417 18.4191 1.74834 17.8982 2.49442C17.3774 3.2405 17.0402 4.09766 16.9136 4.99688C16.7871 5.89611 16.8749 6.81228 17.1698 7.67166C17.4648 8.53103 17.9587 9.3096 18.6119 9.94469L7.52033 26.8162C6.67249 26.6452 5.79699 26.6635 4.95715 26.8699C4.11731 27.0762 3.33414 27.4654 2.66428 28.0094C1.99443 28.5533 1.45464 29.2384 1.08396 30.0151C0.713289 30.7917 0.520996 31.6405 0.520996 32.5C0.520996 33.3595 0.713289 34.2083 1.08396 34.9849C1.45464 35.7616 1.99443 36.4467 2.66428 36.9906C3.33414 37.5346 4.11731 37.9238 4.95715 38.1301C5.79699 38.3365 6.67249 38.3548 7.52033 38.1838L18.6119 55.0553C17.9587 55.6904 17.4648 56.469 17.1698 57.3283C16.8749 58.1877 16.7871 59.1039 16.9136 60.0031C17.0402 60.9023 17.3774 61.7595 17.8982 62.5056C18.4191 63.2517 19.109 63.8658 19.9123 64.2987C20.7157 64.7315 21.6102 64.9708 22.5237 64.9975C23.4372 65.0242 24.3442 64.8374 25.1718 64.4521C25.9994 64.0669 26.7243 63.494 27.2884 62.7796C27.8524 62.0652 28.2397 61.2292 28.4191 60.3389H42.663C42.8424 61.2292 43.2297 62.0652 43.7938 62.7796C44.3578 63.494 45.0828 64.0669 45.9103 64.4521C46.7379 64.8374 47.6449 65.0242 48.5584 64.9975C49.472 64.9708 50.3664 64.7315 51.1698 64.2987C51.9732 63.8658 52.663 63.2517 53.1839 62.5056C53.7047 61.7595 54.042 60.9023 54.1685 60.0031C54.295 59.1039 54.2072 58.1877 53.9123 57.3283C53.6173 56.469 53.1234 55.6904 52.4703 55.0553L63.5618 38.1838C64.3611 38.345 65.1855 38.3381 65.9819 38.1634C66.7783 37.9887 67.5291 37.6502 68.1857 37.1696C68.8424 36.689 69.3904 36.077 69.7945 35.3731C70.1985 34.6693 70.4496 33.8891 70.5316 33.0829C70.6135 32.2767 70.5245 31.4623 70.2704 30.6924C70.0162 29.9225 69.6024 29.214 69.0557 28.6126C68.5091 28.0113 67.8416 27.5304 67.0965 27.201C66.3513 26.8716 65.5449 26.701 64.7293 26.7002ZM61.3844 27.75C60.162 28.6033 59.3125 29.8869 59.0084 31.34H37.4091L46.9712 11.441C47.4326 11.5596 47.9073 11.62 48.3839 11.6208C49.1177 11.6186 49.8446 11.4789 50.5263 11.209L61.3844 27.75ZM42.663 58.019H28.4191C28.1332 56.6284 27.3439 55.3904 26.2008 54.5391L35.5411 35.1679L44.8813 54.5391C43.7382 55.3904 42.949 56.6284 42.663 58.019ZM28.4191 6.98101H42.663C42.949 8.37155 43.7382 9.60965 44.8813 10.4609L35.5411 29.8089L26.2008 10.4609C27.3439 9.60965 28.1332 8.37155 28.4191 6.98101ZM48.3839 2.34119C49.0766 2.34119 49.7538 2.54528 50.3298 2.92765C50.9058 3.31003 51.3548 3.85351 51.6199 4.48937C51.885 5.12523 51.9543 5.82491 51.8192 6.49994C51.684 7.17497 51.3505 7.79502 50.8606 8.28169C50.3708 8.76836 49.7467 9.09978 49.0672 9.23405C48.3878 9.36832 47.6835 9.29941 47.0435 9.03603C46.4035 8.77265 45.8565 8.32662 45.4716 7.75436C45.0867 7.1821 44.8813 6.50931 44.8813 5.82105C44.8813 4.89814 45.2503 4.01302 45.9072 3.36042C46.5641 2.70782 47.455 2.34119 48.3839 2.34119ZM22.6982 2.34119C23.391 2.34119 24.0682 2.54528 24.6442 2.92765C25.2202 3.31003 25.6691 3.85351 25.9342 4.48937C26.1993 5.12523 26.2687 5.82491 26.1335 6.49994C25.9984 7.17497 25.6648 7.79502 25.1749 8.28169C24.6851 8.76836 24.061 9.09978 23.3815 9.23405C22.7021 9.36832 21.9979 9.29941 21.3578 9.03603C20.7178 8.77265 20.1708 8.32662 19.7859 7.75436C19.4011 7.1821 19.1956 6.50931 19.1956 5.82105C19.1956 4.89814 19.5647 4.01302 20.2215 3.36042C20.8784 2.70782 21.7693 2.34119 22.6982 2.34119ZM20.5558 11.209C21.2375 11.4789 21.9644 11.6186 22.6982 11.6208C23.1749 11.62 23.6495 11.5596 24.1109 11.441L33.6905 31.34H12.0912C11.7872 29.8869 10.9376 28.6033 9.71529 27.75L20.5558 11.209ZM2.85021 32.5C2.85021 31.8117 3.05563 31.139 3.4405 30.5667C3.82537 29.9944 4.3724 29.5484 5.01241 29.285C5.65243 29.0216 6.35668 28.9527 7.03612 29.087C7.71556 29.2213 8.33966 29.5527 8.8295 30.0394C9.31935 30.526 9.65294 31.1461 9.78809 31.8211C9.92324 32.4961 9.85387 33.1958 9.58877 33.8317C9.32367 34.4675 8.87473 35.011 8.29873 35.3934C7.72273 35.7758 7.04554 35.9799 6.3528 35.9799C5.42385 35.9799 4.53295 35.6132 3.87609 34.9606C3.21923 34.308 2.85021 33.4229 2.85021 32.5ZM9.69777 37.25C10.9201 36.3967 11.7696 35.1131 12.0737 33.66H33.673L24.1109 53.559C23.6495 53.4404 23.1749 53.38 22.6982 53.3792C21.9644 53.3814 21.2375 53.5211 20.5558 53.791L9.69777 37.25ZM22.6982 62.6588C22.0055 62.6588 21.3283 62.4547 20.7523 62.0723C20.1763 61.69 19.7274 61.1465 19.4623 60.5106C19.1971 59.8748 19.1278 59.1751 19.2629 58.5001C19.3981 57.825 19.7317 57.205 20.2215 56.7183C20.7114 56.2316 21.3355 55.9002 22.0149 55.7659C22.6943 55.6317 23.3986 55.7006 24.0386 55.964C24.6786 56.2274 25.2257 56.6734 25.6105 57.2456C25.9954 57.8179 26.2008 58.4907 26.2008 59.1789C26.2008 60.1019 25.8318 60.987 25.1749 61.6396C24.5181 62.2922 23.6272 62.6588 22.6982 62.6588ZM48.3839 62.6588C47.6912 62.6588 47.014 62.4547 46.438 62.0723C45.862 61.69 45.413 61.1465 45.1479 60.5106C44.8828 59.8748 44.8135 59.1751 44.9486 58.5001C45.0838 57.825 45.4174 57.205 45.9072 56.7183C46.397 56.2316 47.0211 55.9002 47.7006 55.7659C48.38 55.6317 49.0843 55.7006 49.7243 55.964C50.3643 56.2274 50.9113 56.6734 51.2962 57.2456C51.6811 57.8179 51.8865 58.4907 51.8865 59.1789C51.8865 60.1019 51.5175 60.987 50.8606 61.6396C50.2037 62.2922 49.3128 62.6588 48.3839 62.6588ZM50.5263 53.791C49.8446 53.5211 49.1177 53.3814 48.3839 53.3792C47.9073 53.38 47.4326 53.4404 46.9712 53.559L37.3916 33.66H58.9909C59.295 35.1131 60.1445 36.3967 61.3668 37.25L50.5263 53.791ZM64.7293 35.9799C64.0366 35.9799 63.3594 35.7758 62.7834 35.3934C62.2074 35.011 61.7585 34.4675 61.4934 33.8317C61.2283 33.1958 61.1589 32.4961 61.294 31.8211C61.4292 31.1461 61.7628 30.526 62.2526 30.0394C62.7425 29.5527 63.3666 29.2213 64.046 29.087C64.7254 28.9527 65.4297 29.0216 66.0697 29.285C66.7097 29.5484 67.2568 29.9944 67.6416 30.5667C68.0265 31.139 68.2319 31.8117 68.2319 32.5C68.2319 33.4229 67.8629 34.308 67.206 34.9606C66.5492 35.6132 65.6583 35.9799 64.7293 35.9799Z" fill="black"></path></svg>