<svg data-v-1c08c737="" width="52" height="48" viewBox="0 0 52 48" fill="none" xmlns="http://www.w3.org/2000/svg"><g opacity="0.4"><path d="M25.998 0C25.4372 0 24.9824 0.454695 24.9824 1.01562V7.05788C24.9824 7.61881 25.4372 8.07351 25.998 8.07351C26.5589 8.07351 27.0137 7.61881 27.0137 7.05788V1.01562C27.0137 0.454695 26.5589 0 25.998 0Z" fill="black"></path> <path d="M20.2436 8.6723L17.8136 6.24445C17.4166 5.84795 16.7737 5.84826 16.3772 6.24506C15.9808 6.64186 15.9811 7.28486 16.3778 7.68136L18.8079 10.1092C19.0062 10.3074 19.266 10.4064 19.5257 10.4064C19.7858 10.4064 20.0458 10.3071 20.2442 10.1086C20.6406 9.71179 20.6403 9.0688 20.2436 8.6723Z" fill="black"></path> <path d="M35.6216 6.24645C35.2248 5.84985 34.5817 5.85026 34.1852 6.24696L31.6018 8.83244C31.2054 9.22924 31.2057 9.87224 31.6024 10.2687C31.8008 10.467 32.0607 10.566 32.3204 10.566C32.5805 10.566 32.8405 10.4667 33.0388 10.2682L35.6222 7.68275C36.0186 7.28595 36.0183 6.64295 35.6216 6.24645Z" fill="black"></path> <path d="M45.3477 26.8123H44.528C45.1969 25.9403 45.5958 24.8509 45.5958 23.6696V22.2363C45.5958 19.3833 43.2748 17.0623 40.4219 17.0623C37.569 17.0623 35.248 19.3833 35.248 22.2362V23.3504L27.6073 15.7096C27.1833 15.2857 26.5597 15.1496 26.0001 15.3517C25.4407 15.1496 24.8169 15.2857 24.3928 15.7097L16.7522 23.3504V22.2362C16.752 19.3833 14.431 17.0623 11.5781 17.0623C8.72523 17.0623 6.40423 19.3833 6.40423 22.2362V23.6695C6.40423 24.8509 6.80306 25.9402 7.47195 26.8122H6.65234C2.98421 26.8123 0 29.7965 0 33.4646V46.9216C0 47.4826 0.454797 47.9373 1.01562 47.9373H5.30664C5.4082 47.9373 5.50611 47.9219 5.59863 47.8942C5.69116 47.9219 5.78906 47.9373 5.89062 47.9373H17.2656C17.8265 47.9373 18.2812 47.4826 18.2812 46.9216V43.4685C18.2812 42.9076 17.8265 42.4529 17.2656 42.4529C16.7048 42.4529 16.25 42.9076 16.25 43.4685V45.906H6.90625V34.3333C6.90625 33.7723 6.45145 33.3176 5.89062 33.3176C5.3298 33.3176 4.875 33.7723 4.875 34.3333V45.906H2.03125V33.4646C2.03125 30.9165 4.10424 28.8435 6.65234 28.8435H13.7109C13.9904 28.8435 14.2435 28.7305 14.4272 28.5479C14.4279 28.5471 14.4285 28.5467 14.4292 28.5461L24.9784 17.9968C24.9092 20.1061 24.2531 22.1376 23.0703 23.8944L16.4233 33.766C16.3104 33.9337 16.2501 34.1313 16.2501 34.3333V35.4451C16.2501 36.006 16.7049 36.4607 17.2657 36.4607C17.8266 36.4607 18.2814 36.006 18.2814 35.4451V34.6432L24.7553 25.0287C25.2499 24.2941 25.6646 23.518 26.0001 22.7123C26.3356 23.518 26.7502 24.2941 27.245 25.0287L33.7188 34.6432V46.9216C33.7188 47.4826 34.1735 47.9373 34.7344 47.9373H46.1094C46.2109 47.9373 46.3088 47.9219 46.4014 47.8942C46.4939 47.9219 46.5918 47.9373 46.6934 47.9373H50.9844C51.5452 47.9373 52 47.4826 52 46.9216V33.4646C52 29.7965 49.0158 26.8123 45.3477 26.8123ZM14.7208 23.6695C14.7208 25.4025 13.3111 26.8123 11.5781 26.8123C9.84516 26.8123 8.43548 25.4025 8.43548 23.6696V22.2363C8.43548 20.5033 9.84527 19.0935 11.5781 19.0935C13.311 19.0935 14.7208 20.5033 14.7208 22.2362V23.6695ZM37.2792 22.2362C37.2792 20.5033 38.689 19.0935 40.4219 19.0935C42.1547 19.0935 43.5645 20.5033 43.5645 22.2362V23.6695C43.5645 25.4025 42.1548 26.8123 40.4219 26.8123C38.6889 26.8123 37.2792 25.4025 37.2792 23.6696V22.2362ZM49.9688 45.906H47.125V38.3904C47.125 37.8295 46.6702 37.3748 46.1094 37.3748C45.5485 37.3748 45.0938 37.8295 45.0938 38.3904V45.906H35.75V34.3333C35.75 34.1312 35.6897 33.9336 35.5768 33.766L28.9298 23.8945C27.747 22.1377 27.0909 20.1062 27.0217 17.9969L37.5709 28.5461C37.5843 28.5595 37.5969 28.5708 37.6091 28.5809C37.7892 28.7437 38.0272 28.8437 38.2891 28.8437H45.3477C47.8958 28.8437 49.9688 30.9167 49.9688 33.4648V45.906Z" fill="black"></path> <path d="M46.8273 33.614C46.6385 33.4251 46.3765 33.3164 46.1094 33.3164C45.8423 33.3164 45.5802 33.4251 45.3913 33.614C45.2024 33.8029 45.0938 34.0649 45.0938 34.332C45.0938 34.5991 45.2023 34.8612 45.3913 35.0501C45.5802 35.239 45.8423 35.3477 46.1094 35.3477C46.3765 35.3477 46.6385 35.239 46.8273 35.0501C47.0162 34.8612 47.125 34.5991 47.125 34.332C47.125 34.0649 47.0163 33.8039 46.8273 33.614Z" fill="black"></path> <path d="M17.9836 38.9929C17.7948 38.804 17.5327 38.6953 17.2656 38.6953C16.9985 38.6953 16.7365 38.804 16.5476 38.9929C16.3587 39.1818 16.25 39.4438 16.25 39.7109C16.25 39.978 16.3586 40.2401 16.5476 40.429C16.7366 40.6179 16.9985 40.7266 17.2656 40.7266C17.5327 40.7266 17.7948 40.6179 17.9836 40.429C18.1725 40.2401 18.2812 39.978 18.2812 39.7109C18.2812 39.4438 18.1726 39.1818 17.9836 38.9929Z" fill="black"></path></g></svg>