<svg data-v-1c08c737="" width="60" height="52" viewBox="0 0 60 52" fill="none" xmlns="http://www.w3.org/2000/svg"><g opacity="0.4"><path d="M11.0413 35.8801C14.6371 35.8801 17.5626 32.9564 17.5626 29.3626C17.5626 25.7695 14.6371 22.8457 11.0413 22.8457C7.44548 22.8457 4.52002 25.7695 4.52002 29.3626C4.52002 32.9564 7.44548 35.8801 11.0413 35.8801ZM11.0413 24.8117C13.5522 24.8117 15.5948 26.8531 15.5948 29.3619C15.5948 31.8714 13.5522 33.9128 11.0413 33.9128C8.53039 33.9128 6.48782 31.8714 6.48782 29.3619C6.48782 26.8531 8.53039 24.8117 11.0413 24.8117Z" fill="black"></path> <path d="M11.0412 37.6689C5.30838 37.6689 0.644043 42.3306 0.644043 48.0602C0.644043 49.823 2.07922 51.2573 3.84303 51.2573H18.2401C20.0039 51.2573 21.4384 49.823 21.4384 48.0602C21.4384 42.3306 16.7741 37.6689 11.0412 37.6689ZM18.2401 49.2907H3.84303C3.16414 49.2907 2.61184 48.7387 2.61184 48.0602C2.61184 43.4149 6.39329 39.6356 11.0412 39.6356C15.6892 39.6356 19.4706 43.4149 19.4706 48.0602C19.4706 48.7387 18.9183 49.2907 18.2401 49.2907Z" fill="black"></path> <path d="M30.1604 23.7219C33.7563 23.7219 36.6817 20.7982 36.6817 17.205C36.6817 13.6113 33.7563 10.6875 30.1604 10.6875C26.5646 10.6875 23.6392 13.6113 23.6392 17.205C23.6392 20.7982 26.5646 23.7219 30.1604 23.7219ZM30.1604 12.6535C32.6713 12.6535 34.7139 14.6949 34.7139 17.2044C34.7139 19.7132 32.6713 21.7546 30.1604 21.7546C27.6495 21.7546 25.607 19.7132 25.607 17.2044C25.607 14.6949 27.6495 12.6535 30.1604 12.6535Z" fill="black"></path> <path d="M40.558 35.9021C40.558 30.1726 35.8937 25.5103 30.1609 25.5103C24.428 25.5103 19.7637 30.1719 19.7637 35.9021C19.7637 37.6649 21.1989 39.0993 22.962 39.0993H37.3591C39.1235 39.0993 40.558 37.6649 40.558 35.9021ZM37.3597 37.1326H22.962C22.2831 37.1326 21.7315 36.5806 21.7315 35.9021C21.7315 31.2569 25.5129 27.4769 30.1609 27.4769C34.8088 27.4769 38.5902 31.2569 38.5902 35.9021C38.5902 36.5806 38.0379 37.1326 37.3597 37.1326Z" fill="black"></path> <path d="M49.2806 35.8801C52.8764 35.8801 55.8018 32.9564 55.8018 29.3626C55.8018 25.7695 52.8764 22.8457 49.2806 22.8457C45.6847 22.8457 42.7593 25.7695 42.7593 29.3626C42.7593 32.9564 45.6847 35.8801 49.2806 35.8801ZM49.2806 24.8117C51.7915 24.8117 53.834 26.8531 53.834 29.3619C53.834 31.8714 51.7915 33.9128 49.2806 33.9128C46.7696 33.9128 44.7271 31.8714 44.7271 29.3619C44.7271 26.8531 46.7696 24.8117 49.2806 24.8117Z" fill="black"></path> <path d="M49.2805 37.6689C43.5476 37.6689 38.8833 42.33 38.8833 48.0602C38.8833 49.823 40.3185 51.2573 42.0816 51.2573H56.4787C58.2425 51.2573 59.6777 49.823 59.6777 48.0602C59.6777 42.3306 55.0133 37.6689 49.2805 37.6689ZM56.4787 49.2907H42.0816C41.4027 49.2907 40.8511 48.7387 40.8511 48.0602C40.8511 43.4149 44.6325 39.6356 49.2805 39.6356C53.9284 39.6356 57.7099 43.4149 57.7099 48.0602C57.7099 48.7387 57.1576 49.2907 56.4787 49.2907Z" fill="black"></path> <path d="M30.1607 7.061C30.7044 7.061 31.1446 6.62047 31.1446 6.07767V0.983335C31.1446 0.440534 30.7044 0 30.1607 0C29.6169 0 29.1768 0.440534 29.1768 0.983335V6.07767C29.1768 6.62047 29.6169 7.061 30.1607 7.061Z" fill="black"></path> <path d="M45.3317 13.3411C45.5836 13.3411 45.8355 13.2454 46.0277 13.0533L49.632 9.45101C50.0164 9.06686 50.0164 8.44473 49.632 8.06058C49.2476 7.67642 48.6252 7.67642 48.2408 8.06058L44.6364 11.6629C44.2521 12.047 44.2521 12.6691 44.6364 13.0533C44.828 13.2447 45.0798 13.3411 45.3317 13.3411Z" fill="black"></path> <path d="M14.2943 13.0528C14.4865 13.2449 14.7384 13.3406 14.9903 13.3406C15.2421 13.3406 15.494 13.2449 15.6862 13.0528C16.0706 12.6687 16.0706 12.0465 15.6862 11.6624L12.0819 8.06009C11.6975 7.67593 11.075 7.67593 10.6906 8.06009C10.3062 8.44425 10.3062 9.06637 10.6906 9.45053L14.2943 13.0528Z" fill="black"></path> <path d="M21.0412 8.08527C21.198 8.46352 21.5646 8.69231 21.9503 8.69231C22.0756 8.69231 22.2035 8.66871 22.3268 8.61758C22.8286 8.40977 23.0667 7.83484 22.8594 7.33269L20.9087 2.62579C20.7008 2.12363 20.1248 1.88501 19.6231 2.09348C19.1213 2.30129 18.8832 2.87621 19.0904 3.37837L21.0412 8.08527Z" fill="black"></path> <path d="M37.9944 8.61758C38.1177 8.66871 38.245 8.69231 38.3709 8.69231C38.7566 8.69231 39.1233 8.46352 39.2801 8.08527L41.2308 3.37837C41.4387 2.87621 41.2006 2.30129 40.6982 2.09348C40.1951 1.88501 39.6205 2.12363 39.4126 2.62579L37.4618 7.33269C37.2539 7.83419 37.4926 8.40911 37.9944 8.61758Z" fill="black"></path></g></svg>