<svg data-v-1c08c737="" width="63" height="61" viewBox="0 0 63 61" fill="none" xmlns="http://www.w3.org/2000/svg"><path opacity="0.4" d="M21.2072 10.9987C20.3466 11.9348 19.799 13.3389 20.112 14.743C20.5031 16.6931 22.3024 18.0972 24.2581 18.0972V18.1752L24.571 21.2954C24.6492 21.9974 25.1968 22.4655 25.9009 22.4655C26.6832 22.4655 27.309 21.7634 27.2308 20.9834L26.9179 18.0972H55.315L51.4035 56.7877C51.3253 57.6458 50.6212 58.3478 49.8389 58.3478H44.05C45.3017 56.7877 46.0057 54.9156 46.0057 52.8875V52.5754C47.9614 51.4834 49.526 49.2992 49.526 46.8811V46.6471C49.526 43.9169 47.7268 41.4987 45.3799 40.6407C43.4242 33.4642 37.7917 27.8478 30.5946 25.8197C30.5946 25.8197 27.9348 25.1176 25.0404 24.9616C24.8839 24.9616 24.8057 24.9616 24.8057 24.9616C24.4928 24.9616 24.2581 24.9616 23.9452 24.9616C14.323 25.3517 6.26543 31.9821 3.84033 40.8747C1.64992 41.8887 0.163574 44.1509 0.163574 46.7251V46.9591C0.163574 49.2212 1.33701 51.2494 3.13627 52.4194V52.8875C3.13627 57.3338 6.7348 61 11.2721 61H37.8699H39.278H49.7607C51.9511 61 53.7504 59.3619 53.9851 57.2558L57.8965 18.2532V18.1752H57.9748C60.3216 18.1752 62.1991 16.3811 62.1991 14.0409C62.1991 13.0269 61.808 12.0128 61.1821 11.3107C60.3998 10.3747 59.1482 9.82864 57.8965 9.82864H31.8463L29.8906 2.10614C29.5777 0.858056 28.4042 0 27.1526 0H21.2854C20.5813 0 19.9555 0.624041 19.9555 1.32609C19.9555 2.02813 20.5813 2.65217 21.2854 2.65217H27.1526C27.2308 2.65217 27.309 2.65217 27.3872 2.73018L29.1865 9.82864H24.2581C23.0847 9.75064 21.9894 10.2187 21.2072 10.9987ZM42.1725 39.8606C42.1725 40.0166 42.4072 40.3286 42.4072 40.3286H29.1083H26.9179H26.5267H6.7348L6.81303 40.1726C9.39459 32.9182 16.4352 27.6918 24.571 27.6918C24.8057 27.6918 24.9621 27.6918 25.1968 27.6918C25.1968 27.6918 25.9791 27.6138 27.8566 27.9258C33.8802 28.9399 38.8087 32.9182 41.3902 38.1445C41.3902 38.1445 42.0943 39.5486 42.1725 39.8606ZM14.0101 46.4911L11.4285 43.2148H17.4522L14.0101 46.4911ZM43.4242 53.4335C43.1895 55.7737 41.4684 57.7238 39.1998 58.2698C39.1998 58.2698 39.0434 58.3478 38.1046 58.3478L28.7171 58.4258L11.3503 58.3478C8.45584 58.3478 6.10897 56.3197 5.79606 53.4335H6.65658H27.8566H30.5164H42.8766H43.4242ZM12.7584 48.7532C13.5407 49.2992 14.5577 49.2992 15.4182 48.8312C15.6529 48.6752 15.8876 48.5192 16.1223 48.3632L20.9725 43.2928H26.9179H29.4212H29.6559H33.0197H39.5127H43.033C43.1895 43.2928 43.2677 43.2928 43.2677 43.2928C44.4411 43.3708 45.2234 43.8389 45.8493 44.7749C46.3186 45.399 46.5533 45.945 46.5533 46.8031V47.0371C46.5533 47.8171 46.3969 48.6752 46.0057 49.2992C45.4581 50.1573 44.5976 50.4693 43.5806 50.6253C43.3459 50.6253 43.6589 50.6253 43.4242 50.6253H30.5164H27.8566H6.96949C6.65658 50.6253 5.48314 50.6253 5.17023 50.5473C3.99679 50.2353 3.29273 49.6893 2.82336 48.6752C2.58867 48.1292 2.43221 47.7391 2.43221 47.1151V46.8811C2.43221 46.257 2.6669 45.633 2.97982 45.087C3.52742 43.9949 4.70085 43.5269 5.95251 43.3708C5.95251 43.3708 6.50012 43.2928 6.89126 43.2928H7.90824L12.1326 48.3632C12.3673 48.4412 12.602 48.5972 12.7584 48.7532ZM57.9748 12.3248C58.5224 12.3248 59.07 12.6368 59.3046 13.1049C59.4611 13.4169 59.5393 13.7289 59.5393 14.0409C59.5393 14.743 59.07 15.445 58.4441 15.601C58.2877 15.679 58.1312 15.679 58.053 15.679H55.6279H26.6832H24.4928C23.6323 15.679 22.85 15.055 22.7717 14.1189C22.7717 14.0409 22.7717 14.0409 22.7717 13.9629C22.7717 13.5729 22.9282 13.1829 23.1629 12.8708C23.3976 12.5588 23.8669 12.3248 24.2581 12.3248H57.9748Z" fill="black"></path></svg>