<svg data-v-1c08c737="" width="51" height="52" viewBox="0 0 51 52"  xmlns="http://www.w3.org/2000/svg"><g opacity="0.4"><path class="icon" d="M16.9218 1.39988e-05C14.6281 -0.00404323 12.3462 0.873824 10.5968 2.62634C7.0981 6.1314 7.09811 11.8182 10.5968 15.3233L23.8629 28.636C23.9707 28.745 24.0992 28.8315 24.2407 28.8906C24.3822 28.9496 24.5341 28.98 24.6875 28.98C24.8408 28.98 24.9927 28.9496 25.1342 28.8906C25.2758 28.8315 25.4042 28.745 25.5121 28.636L38.7962 15.3233C42.2922 11.821 42.3131 6.14951 38.8143 2.64445C38.7589 2.59022 38.6982 2.54168 38.6331 2.49955C35.1225 -0.840434 29.5715 -0.804997 26.1282 2.64445L24.6965 4.07535L23.2648 2.64445C21.5168 0.893311 19.2154 0.00422772 16.9218 1.39988e-05ZM16.9218 2.30032C18.6136 2.30379 20.3047 2.96134 21.6156 4.27459L23.8629 6.53867C23.9707 6.64763 24.0992 6.73413 24.2407 6.79317C24.3822 6.85221 24.5341 6.88261 24.6875 6.88261C24.8408 6.88261 24.9927 6.85221 25.1342 6.79317C25.2758 6.73413 25.4042 6.64763 25.5121 6.53867L27.7593 4.27459C30.3783 1.65085 34.5461 1.65086 37.1651 4.27459C39.7842 6.89833 39.7688 11.0666 37.147 13.6931L24.6965 26.1546L12.2279 13.6931C9.6089 11.0694 9.60889 6.88023 12.2279 4.25648C13.5374 2.94461 15.23 2.29679 16.9218 2.30032ZM46.9153 23.3472C46.0067 23.3472 45.1852 23.7559 44.5956 24.3615L44.5774 24.3434C44.5774 24.3434 44.5595 24.3796 44.5593 24.3796C44.5333 24.4057 42.9688 25.9534 41.2609 27.658C39.539 29.3766 37.7398 31.163 37.2014 31.7514C37.098 31.8642 37.018 31.9963 36.9659 32.1402C36.9138 32.284 36.8906 32.4367 36.8978 32.5895C36.9049 32.7423 36.9423 32.8922 37.0076 33.0305C37.0729 33.1689 37.165 33.2929 37.2784 33.3956C37.3919 33.4983 37.5245 33.5775 37.6688 33.6287C37.813 33.68 37.9659 33.7022 38.1187 33.6942C38.2716 33.6861 38.4213 33.648 38.5594 33.5819C38.6974 33.5158 38.821 33.4231 38.9231 33.3091C39.2902 32.9078 41.1735 31.0214 42.892 29.3062C44.6105 27.591 46.2085 25.9916 46.2085 25.9916C46.2207 25.9858 46.2328 25.9797 46.2448 25.9735C46.4453 25.7626 46.6653 25.6656 46.9153 25.6656C47.436 25.6656 47.9664 26.1646 47.9664 26.9697C47.9664 27.3166 47.8565 27.6152 47.6946 27.8391C47.6915 27.8449 47.6977 27.8531 47.6946 27.8572C47.644 27.9179 40.7066 36.2378 36.2228 41.4779C34.9841 42.9254 33.2822 44.3578 30.8765 44.3578H17.1211C15.6414 44.3578 14.0874 44.6263 12.8803 45.8068L9.60008 49.0127C9.48831 49.119 9.39886 49.2464 9.33696 49.3876C9.27507 49.5288 9.24197 49.6809 9.23961 49.8351C9.23725 49.9892 9.26567 50.1423 9.3232 50.2853C9.38074 50.4283 9.46624 50.5584 9.57471 50.668C9.68317 50.7777 9.81241 50.8645 9.95488 50.9236C10.0973 50.9827 10.2502 51.0128 10.4044 51.0121C10.5587 51.0115 10.7112 50.9801 10.8532 50.9198C10.9951 50.8595 11.1236 50.7715 11.2311 50.661L14.5114 47.455C15.173 46.808 15.8742 46.6762 17.1211 46.6762H30.8765C34.2072 46.6762 36.5395 44.6656 37.9807 42.9812C42.5015 37.698 49.5069 29.2881 49.5069 29.2881C49.5195 29.2703 49.5316 29.2522 49.5431 29.2338C50.0113 28.6033 50.2862 27.8152 50.2862 26.9697C50.2862 25.0442 48.8377 23.3472 46.9153 23.3472ZM16.3237 31.9869C13.8628 31.9869 11.3261 32.3326 9.29199 33.9974L0.828551 40.9164C0.590628 41.1133 0.440735 41.3967 0.411846 41.7041C0.382957 42.0115 0.477438 42.3178 0.674505 42.5556C0.871572 42.7934 1.15508 42.9432 1.46267 42.9721C1.77025 43.0009 2.07671 42.9065 2.31464 42.7095L10.7599 35.7905C12.1708 34.6358 14.0763 34.3053 16.3237 34.3053H33.3956C33.5941 34.8754 33.5694 35.5721 33.1962 36.2615C32.7268 37.1285 31.9321 37.6036 31.547 37.5656C31.5111 37.5578 31.4748 37.5518 31.4383 37.5475H20.3651C20.2114 37.5453 20.0588 37.5737 19.9162 37.6309C19.7736 37.6882 19.6438 37.7733 19.5343 37.8811C19.4248 37.989 19.3379 38.1175 19.2786 38.2592C19.2193 38.4009 19.1887 38.553 19.1887 38.7067C19.1887 38.8603 19.2193 39.0124 19.2786 39.1541C19.3379 39.2958 19.4248 39.4244 19.5343 39.5322C19.6438 39.6401 19.7736 39.7251 19.9162 39.7824C20.0588 39.8397 20.2114 39.868 20.3651 39.8659H31.3114H31.4383V39.8478C33.1377 39.9479 34.4849 38.7506 35.2441 37.3482C36.0231 35.9091 36.2773 33.9752 35.1172 32.4578C35.0103 32.313 34.8711 32.1951 34.7107 32.1133C34.5503 32.0316 34.373 31.9883 34.193 31.9869H16.3237Z" ></path></g></svg>