<svg data-v-1c08c737="" width="58" height="57" viewBox="0 0 58 57" fill="none" xmlns="http://www.w3.org/2000/svg"><g opacity="0.4" clip-path="url(#clip0_578_3621)"><path d="M37.6852 27.3867C38.3004 27.3867 38.7991 26.8883 38.7991 26.2734C38.7991 25.6586 38.3004 25.1602 37.6852 25.1602C37.07 25.1602 36.5713 25.6586 36.5713 26.2734C36.5713 26.8883 37.07 27.3867 37.6852 27.3867Z" fill="color"></path> <path d="M37.8761 31.0437C37.268 30.9534 36.7011 31.3737 36.611 31.9819C36.3066 34.0364 34.5689 35.7404 31.9628 36.5402C29.1772 37.3951 25.3106 37.1085 22.9519 34.5414C22.5358 34.0885 21.8311 34.0587 21.3781 34.4744C20.9249 34.8903 20.895 35.5946 21.311 36.0473C22.6765 37.5335 24.531 38.5463 26.6742 38.9764C27.431 39.1282 28.2161 39.2036 29.0063 39.2036C30.2269 39.2036 31.4596 39.0238 32.6167 38.6687C36.0643 37.6107 38.3814 35.233 38.8148 32.3081C38.9049 31.6999 38.4846 31.1338 37.8761 31.0437Z" fill="black"></path> <path d="M53.3583 21.1981C51.3336 18.8523 48.5392 17.3313 45.1756 16.7205C48.396 14.5485 51.1736 12.3869 53.1542 10.5008C56.1739 7.62509 57.1865 5.60426 56.341 4.14152C55.4002 2.51234 52.6843 2.52359 47.7936 4.17725C43.6613 5.57442 38.5134 8.00104 33.2985 11.0102C32.3977 11.5299 31.5053 12.0621 30.6322 12.5983C29.9847 10.7707 30.4118 8.68293 31.8405 6.87262C32.9106 5.51664 33.1495 3.7944 32.4642 2.37775C31.7457 0.892963 30.1688 0.00400781 28.2434 0H28.191C21.3955 0 14.7486 2.67978 9.47498 7.54571C4.19478 12.4177 0.962185 18.8671 0.372699 25.7059C-0.336533 33.9419 2.29766 41.7721 7.78984 47.7539C13.185 53.63 20.8337 57 28.7747 57C33.05 57 37.0634 56.2183 40.7034 54.6763C44.0318 53.2663 46.9874 51.253 49.4884 48.6921C51.8072 46.3176 53.6355 43.5842 54.9224 40.5675C56.1471 37.697 56.8161 34.6551 56.8575 31.7707C56.9178 27.5761 55.7077 23.9202 53.3583 21.1981ZM30.7624 15.1393C31.9414 14.3962 33.1693 13.6557 34.4123 12.9386C39.234 10.1562 44.0354 7.86455 47.9323 6.48553C52.222 4.96757 53.9783 5.06665 54.3878 5.26259C54.3523 5.52165 54.0304 6.67423 51.2154 9.26506C48.8648 11.4285 45.4323 13.9727 41.5502 16.4289C40.323 17.2057 39.0457 17.9776 37.7542 18.7231C35.9736 19.7502 34.1943 20.7106 32.448 21.59C32.0996 20.5737 31.653 19.5874 31.1095 18.6465C30.5827 17.7346 29.9718 16.8785 29.2888 16.0864C29.7721 15.7697 30.2639 15.4531 30.7624 15.1393ZM30.4298 22.5776C27.2844 24.0684 24.3983 25.2049 22.0935 25.8642C21.9735 25.2883 21.7625 24.7317 21.4632 24.2131C21.1795 23.7216 20.8236 23.2822 20.4122 22.9032C22.1377 21.239 24.5662 19.3108 27.4259 17.3381C28.0898 18.0797 28.6784 18.8908 29.1802 19.7595C29.6992 20.6579 30.1169 21.6029 30.4298 22.5776ZM54.6299 31.7388C54.4711 42.8168 44.5408 54.7734 28.7747 54.7734C21.4561 54.7734 14.4057 51.6663 9.43142 46.2486C4.3661 40.7318 1.93742 33.5041 2.59241 25.8969C3.71735 12.845 15.2009 2.22656 28.191 2.22656H28.2411C29.3068 2.22879 30.115 2.63714 30.4584 3.34708C30.7742 3.99969 30.637 4.80214 30.0912 5.49371C28.0836 8.03756 27.5801 11.1662 28.7144 13.8041C28.1172 14.1887 27.5303 14.5749 26.9632 14.9579C26.9605 14.9597 26.9578 14.9615 26.9553 14.9633C23.4131 17.352 20.422 19.7281 18.4319 21.7277C16.9225 21.2121 15.2641 21.3624 13.8546 22.1756C11.5403 23.5116 8.50152 29.7376 7.91594 30.9722C7.7591 31.3026 7.7748 31.689 7.95771 32.0057C8.14073 32.3224 8.46766 32.5292 8.83236 32.5588C9.44802 32.6087 11.1963 32.7347 13.1422 32.7347C15.5035 32.7347 18.1555 32.549 19.4243 31.8166C20.7986 31.0237 21.7513 29.6989 22.0812 28.1759C24.8129 27.4593 28.382 26.0573 32.2475 24.1751C34.4133 23.1216 36.6407 21.9361 38.8681 20.6514C39.9979 19.9992 41.115 19.3269 42.2006 18.6488C42.2072 18.6491 42.2135 18.6501 42.2201 18.6504C51.5045 18.9164 54.7183 25.5859 54.6299 31.7388ZM19.9759 27.2053C19.9046 28.3249 19.2821 29.3277 18.3104 29.8884C17.2569 30.4966 13.638 30.5785 10.6666 30.4427C12.034 27.8038 13.9142 24.7126 14.9687 24.1039C15.9643 23.5294 17.168 23.5043 18.1893 24.0367C18.7506 24.3289 19.2153 24.7745 19.5334 25.3257C19.8644 25.899 20.0173 26.549 19.9759 27.2053Z" fill="black"></path> <path d="M19.8624 6.88477C17.4056 6.88477 15.4067 8.88244 15.4067 11.3379C15.4067 13.7933 17.4056 15.791 19.8624 15.791C22.3193 15.791 24.3181 13.7933 24.3181 11.3379C24.3181 8.88244 22.3193 6.88477 19.8624 6.88477ZM19.8624 13.5645C18.634 13.5645 17.6346 12.5656 17.6346 11.3379C17.6346 10.1102 18.634 9.11133 19.8624 9.11133C21.0908 9.11133 22.0903 10.1102 22.0903 11.3379C22.0903 12.5656 21.0908 13.5645 19.8624 13.5645Z" fill="black"></path> <path d="M14.2931 36.7996C11.8362 36.7996 9.8374 38.7972 9.8374 41.2527C9.8374 43.7081 11.8362 45.7058 14.2931 45.7058C16.7499 45.7058 18.7488 43.7081 18.7488 41.2527C18.7488 38.7972 16.7499 36.7996 14.2931 36.7996ZM14.2931 43.4792C13.0646 43.4792 12.0652 42.4804 12.0652 41.2527C12.0652 40.025 13.0646 39.0261 14.2931 39.0261C15.5215 39.0261 16.5209 40.025 16.5209 41.2527C16.5209 42.4804 15.5215 43.4792 14.2931 43.4792Z" fill="black"></path> <path d="M25.4322 43.4792C22.9754 43.4792 20.9766 45.4769 20.9766 47.9324C20.9766 50.3878 22.9754 52.3855 25.4322 52.3855C27.8891 52.3855 29.8879 50.3878 29.8879 47.9324C29.8879 45.4769 27.8891 43.4792 25.4322 43.4792ZM25.4322 50.1589C24.2038 50.1589 23.2044 49.1601 23.2044 47.9324C23.2044 46.7046 24.2038 45.7058 25.4322 45.7058C26.6607 45.7058 27.6601 46.7046 27.6601 47.9324C27.6601 49.1601 26.6607 50.1589 25.4322 50.1589Z" fill="black"></path> <path d="M38.7994 41.2527C36.3426 41.2527 34.3438 43.2504 34.3438 45.7058C34.3438 48.1613 36.3426 50.1589 38.7994 50.1589C41.2563 50.1589 43.2551 48.1613 43.2551 45.7058C43.2551 43.2504 41.2563 41.2527 38.7994 41.2527ZM38.7994 47.9324C37.571 47.9324 36.5716 46.9335 36.5716 45.7058C36.5716 44.4781 37.571 43.4792 38.7994 43.4792C40.0279 43.4792 41.0273 44.4781 41.0273 45.7058C41.0273 46.9335 40.0279 47.9324 38.7994 47.9324Z" fill="black"></path> <path d="M47.7106 30.1199C45.2537 30.1199 43.2549 32.1175 43.2549 34.573C43.2549 37.0285 45.2537 39.0261 47.7106 39.0261C50.1674 39.0261 52.1662 37.0285 52.1662 34.573C52.1662 32.1175 50.1674 30.1199 47.7106 30.1199ZM47.7106 36.7996C46.4821 36.7996 45.4827 35.8007 45.4827 34.573C45.4827 33.3453 46.4821 32.3464 47.7106 32.3464C48.939 32.3464 49.9384 33.3453 49.9384 34.573C49.9384 35.8007 48.939 36.7996 47.7106 36.7996Z" fill="black"></path></g> <defs><clipPath id="clip0_578_3621"><rect width="57.0327" height="57" fill="white" transform="translate(0.043457)"></rect></clipPath></defs></svg>