<svg data-v-1c08c737="" width="58" height="57" viewBox="0 0 58 57" fill="none" xmlns="http://www.w3.org/2000/svg"><g opacity="0.4" clip-path="url(#clip0_578_3747)"><path d="M36.6999 5.66138H19.3457C18.8842 5.66138 18.5103 6.0351 18.5103 6.49634C18.5103 6.95757 18.8842 7.3313 19.3457 7.3313H36.6999C37.1614 7.3313 37.5353 6.95757 37.5353 6.49634C37.5353 6.0351 37.1614 5.66138 36.6999 5.66138Z" fill="black"></path> <path d="M36.6999 10.5493H19.3457C18.8842 10.5493 18.5103 10.923 18.5103 11.3843C18.5103 11.8455 18.8842 12.2192 19.3457 12.2192H36.6999C37.1614 12.2192 37.5353 11.8455 37.5353 11.3843C37.5353 10.923 37.1614 10.5493 36.6999 10.5493Z" fill="black"></path> <path d="M52.689 28.8764H47.7293V26.5454C47.7293 23.4732 45.2284 20.9739 42.1545 20.9739H32.7619C29.6879 20.9739 27.1871 23.4732 27.1871 26.5454V28.8764H22.2273C19.7328 28.8764 17.7188 30.8978 17.7188 33.3824V52.4777C17.7188 54.9622 19.7413 56.9837 22.2273 56.9837H52.6891C55.1751 56.9837 57.1977 54.9623 57.1977 52.4777V48.8596C57.1977 48.3983 56.8238 48.0246 56.3623 48.0246C55.9008 48.0246 55.5268 48.3983 55.5268 48.8596V52.4777C55.5268 54.0416 54.2539 55.3138 52.6891 55.3138H22.2273C20.6626 55.3138 19.3896 54.0416 19.3896 52.4777V40.6438C20.7062 42.2662 22.6867 43.3296 24.9139 43.4165V44.6913C24.9139 46.3738 26.2836 47.7427 27.967 47.7427C29.6505 47.7427 31.0202 46.3738 31.0202 44.6913V43.4223H43.8962V44.6913C43.8962 46.3738 45.2659 47.7427 46.9493 47.7427C48.6328 47.7427 50.0025 46.3738 50.0025 44.6913V43.4165C52.2296 43.3296 54.2102 42.2662 55.5267 40.6438V44.9561C55.5267 45.4173 55.9007 45.791 56.3622 45.791C56.8237 45.791 57.1976 45.4173 57.1976 44.9561V33.3822C57.1976 30.8984 55.1844 28.8764 52.689 28.8764ZM28.8579 26.5454C28.8579 24.3941 30.6092 22.6438 32.7619 22.6438H42.1545C44.3071 22.6438 46.0584 24.3941 46.0584 26.5454V28.8764H44.3186V26.5454C44.3186 25.353 43.3478 24.3827 42.1545 24.3827H32.7619C31.5687 24.3827 30.5979 25.353 30.5979 26.5454V28.8764H28.8579V26.5454ZM32.2688 28.8764V26.5454C32.2688 26.2738 32.4899 26.0527 32.7619 26.0527H42.1545C42.4264 26.0527 42.6477 26.2737 42.6477 26.5454V28.8764H32.2688ZM29.3493 44.6913C29.3493 45.4531 28.7293 46.0728 27.967 46.0728C27.2048 46.0728 26.5848 45.4531 26.5848 44.6913V41.7065C26.5848 40.9447 27.2048 40.325 27.967 40.325C28.7293 40.325 29.3493 40.9447 29.3493 41.7065V44.6913ZM48.3316 44.6913C48.3316 45.4531 47.7116 46.0728 46.9493 46.0728C46.1871 46.0728 45.5671 45.4531 45.5671 44.6913V42.5959C45.5671 42.593 45.5672 42.5901 45.5672 42.5873C45.5672 42.5846 45.5671 42.5816 45.5671 42.5788V41.7066C45.5671 40.9448 46.1871 40.3252 46.9493 40.3252C47.7116 40.3252 48.3316 40.9448 48.3316 41.7066V44.6913ZM50.0025 41.7449V41.7066C50.0025 40.0241 48.6328 38.6552 46.9493 38.6552C45.2659 38.6552 43.8962 40.0241 43.8962 41.7066V41.7524H31.0202V41.7066C31.0202 40.0241 29.6505 38.6552 27.967 38.6552C26.2836 38.6552 24.9139 40.0241 24.9139 41.7066V41.7449C21.8416 41.5903 19.3896 39.0437 19.3896 35.9354V33.3822C19.3896 31.8161 20.6596 30.5462 22.2273 30.5462H52.6891C54.2528 30.5462 55.5268 31.8121 55.5268 33.3823V35.9354C55.5267 39.0437 53.0748 41.5903 50.0025 41.7449Z" fill="black"></path> <path d="M16.6418 55.3137H4.29645C2.9397 55.3137 1.83592 54.2105 1.83592 52.8546V12.7483C1.83592 12.568 1.85519 12.3908 1.89284 12.2188H9.4959C11.0833 12.2188 12.3748 10.9281 12.3748 9.34163V1.74292C12.5469 1.70541 12.7243 1.68604 12.9046 1.68604H41.2302C42.587 1.68604 43.6908 2.78919 43.6908 4.14516V18.4711C43.6908 18.9323 44.0647 19.3061 44.5262 19.3061C44.9877 19.3061 45.3616 18.9323 45.3616 18.4711V4.14516C45.3616 1.86839 43.5083 0.0161133 41.2302 0.0161133H12.9045C11.8009 0.0161133 10.7633 0.445506 9.98301 1.22536L1.37498 9.82858C0.594678 10.6084 0.165039 11.6453 0.165039 12.7483V52.8546C0.165039 55.1313 2.01838 56.9836 4.29645 56.9836H16.6418C17.1033 56.9836 17.4772 56.6099 17.4772 56.1486C17.4772 55.6874 17.1033 55.3137 16.6418 55.3137ZM10.7038 2.86689V9.34163C10.7038 10.0073 10.1619 10.5489 9.49578 10.5489H3.01745L10.7038 2.86689Z" fill="black"></path></g> <defs><clipPath id="clip0_578_3747"><rect width="57.0327" height="57" fill="white" transform="translate(0.165039)"></rect></clipPath></defs></svg>