<svg data-v-1c08c737="" width="65" height="57" viewBox="0 0 65 57" fill="none" xmlns="http://www.w3.org/2000/svg"><g opacity="0.4"><path d="M32.5414 9.47998C25.6975 9.47998 20.1343 15.04 20.1343 21.88C20.1343 28.72 25.6975 34.28 32.5414 34.28C39.3853 34.28 44.9485 28.72 44.9485 21.88C44.9485 15.04 39.3853 9.47998 32.5414 9.47998ZM32.5414 32.33C26.7681 32.33 22.0754 27.64 22.0754 21.87C22.0754 16.1 26.7681 11.41 32.5414 11.41C38.3147 11.41 43.0074 16.1 43.0074 21.87C43.0074 27.64 38.3147 32.33 32.5414 32.33Z" fill="black"></path> <path d="M38.6547 20.1001L30.6401 15.4801C29.9997 15.1101 29.2293 15.1101 28.5889 15.4801C27.9486 15.8501 27.5583 16.5201 27.5583 17.2601V26.5101C27.5583 27.2501 27.9386 27.9201 28.5889 28.2901C28.9091 28.4801 29.2593 28.5701 29.6195 28.5701C29.9697 28.5701 30.3199 28.4801 30.6501 28.2901L38.6647 23.6701C39.3051 23.3001 39.6953 22.6301 39.6953 21.8901C39.6853 21.1301 39.3051 20.4701 38.6547 20.1001ZM37.6841 21.9801L29.6696 26.6001C29.6495 26.6101 29.6095 26.6301 29.5595 26.6001C29.4995 26.5701 29.4995 26.5201 29.4995 26.5001V17.2501C29.4995 17.2301 29.4995 17.1801 29.5595 17.1501C29.5795 17.1401 29.5995 17.1301 29.6195 17.1301C29.6495 17.1301 29.6696 17.1401 29.6796 17.1501L37.6942 21.7701C37.7142 21.7801 37.7542 21.8001 37.7542 21.8701C37.7442 21.9401 37.7042 21.9701 37.6841 21.9801Z" fill="black"></path> <path d="M61.6477 0H3.43437C1.82345 0 0.522705 1.31 0.522705 2.91V53.94C0.522705 55.54 1.82345 56.85 3.43437 56.85H61.6477C63.2486 56.85 64.5594 55.54 64.5594 53.94V2.91C64.5594 1.31 63.2486 0 61.6477 0ZM62.6183 53.95C62.6183 54.48 62.178 54.92 61.6477 54.92H3.43437C2.90407 54.92 2.46382 54.48 2.46382 53.95V44.19H62.6183V53.95ZM62.6183 42.24H2.46382V2.91C2.46382 2.38 2.90407 1.94 3.43437 1.94H61.6477C62.178 1.94 62.6183 2.38 62.6183 2.91V42.24Z" fill="black"></path> <path d="M12.2198 50.2102H15.2315V52.0802C15.2315 52.6202 15.6618 53.0502 16.2021 53.0502C16.7424 53.0502 17.1727 52.6202 17.1727 52.0802V50.2102H53.1032C53.6436 50.2102 54.0738 49.7802 54.0738 49.2402C54.0738 48.7002 53.6436 48.2702 53.1032 48.2702H17.1727V46.4002C17.1727 45.8602 16.7424 45.4302 16.2021 45.4302C15.6618 45.4302 15.2315 45.8602 15.2315 46.4002V48.2702H12.2198C11.6795 48.2702 11.2493 48.7002 11.2493 49.2402C11.2493 49.7802 11.6895 50.2102 12.2198 50.2102Z" fill="black"></path></g></svg>