<svg data-v-1c08c737="" width="43" height="58" viewBox="0 0 43 58" fill="none" xmlns="http://www.w3.org/2000/svg"><path d="M28.6795 33.684L28.4968 33.8665C28.3141 34.1404 28.1315 34.4142 27.8575 34.6881L10.2296 52.3058C9.22493 53.31 7.85489 53.8577 6.48485 53.8577C5.11481 53.8577 3.74477 53.31 2.74008 52.3058L1.91805 53.0361C1.91805 53.1274 1.82672 53.2187 1.82672 53.4012C1.82672 53.5838 1.82672 53.7664 1.91805 53.9489C2.00939 54.2228 2.19206 54.4966 2.37473 54.6792C3.10542 55.4095 4.38413 55.9572 6.75886 56.1397C10.6863 56.4136 11.5997 55.3182 13.1524 53.5838C13.8831 52.7622 14.7051 51.8494 15.8011 50.8453C18.2672 48.7458 20.0026 49.8412 21.738 50.9366C23.0167 51.7581 24.3867 52.671 26.3048 51.393C28.2228 50.115 29.4102 47.7416 29.7755 45.4596C29.9582 44.638 29.9582 43.8165 29.7755 43.0862C29.6842 42.4472 29.4102 41.9908 29.0448 41.7169C28.6795 41.4431 28.1315 41.3518 27.4008 41.5344C26.8528 41.6256 26.3961 41.2605 26.3048 40.8041C26.2134 40.2564 26.4874 39.8 27.0354 39.7087C28.3141 39.4348 29.3188 39.7087 30.1409 40.2564C30.8715 40.8041 31.3282 41.7169 31.5109 42.7211C31.7849 43.6339 31.7849 44.638 31.6022 45.7334C31.1456 48.3806 29.6842 51.393 27.3094 52.9448C24.3867 54.8618 22.4686 53.6751 20.7333 52.4884C19.5459 51.7581 18.4499 51.0279 16.9885 52.2145C15.9838 53.1274 15.1618 54.0402 14.5224 54.7705C12.6044 56.87 11.417 58.2393 6.66752 57.9654C3.74477 57.7828 2.10073 56.9613 1.09603 55.9572C0.639352 55.592 0.365344 55.1356 0.182672 54.6792C0 54.2228 0 53.6751 0 53.31C0.0913359 52.671 0.274008 52.1233 0.639352 51.7581C0.913359 51.4843 1.09603 51.3017 1.46138 50.9366C0.548016 50.0237 0.0913359 48.7458 0.0913359 47.4678C0.0913359 46.0985 0.639352 44.7293 1.64405 43.7252L19.2719 26.1074C19.5459 25.8336 19.8199 25.651 20.0939 25.4684L20.2766 25.2859C20.0939 24.5556 20.0026 23.7341 20.0026 22.9125C20.0026 20.0827 21.0986 17.2529 23.2907 15.0621C25.3914 12.9626 28.2228 11.8672 31.0542 11.8672C33.8856 11.8672 36.717 12.9626 38.8178 15.0621C41.0098 17.2529 42.1059 20.0827 42.1059 22.9125C42.1059 25.7423 41.0098 28.5721 38.8178 30.6716C36.717 32.8624 33.8856 33.9578 31.0542 33.9578C30.2322 33.9578 29.4102 33.8665 28.6795 33.684ZM13.1524 53.5838C13.5177 53.2187 14.0657 53.1274 14.4311 53.4925L13.1524 53.5838ZM3.92745 43.999L9.95562 50.0237L26.5788 33.4101C26.6701 33.3188 26.7614 33.2276 26.8528 33.1363C25.9394 32.7711 25.1174 32.3147 24.3867 31.6757H24.2954V31.5844H24.204L24.1127 31.4932C23.8387 31.2193 23.5647 31.0367 23.2907 30.6716H23.1993V30.5803H23.108V30.489H23.0167V30.3978H22.9253V30.3065H22.834V30.2152H22.7427V30.1239H22.6513C21.9206 29.2111 21.2813 28.207 20.8246 27.1116C20.7333 27.2028 20.6419 27.2941 20.5506 27.3854L3.92745 43.999ZM8.58558 51.3017L2.64874 45.277C2.19206 45.916 1.91805 46.7375 1.91805 47.4678C1.91805 48.3806 2.2834 49.2935 2.92275 49.9325L4.01878 51.0279C4.65813 51.6668 5.57149 52.032 6.48485 52.032C7.21554 52.032 8.03756 51.7581 8.58558 51.3017ZM22.012 21.2694L32.6069 31.9496C34.4337 31.6757 36.169 30.8542 37.5391 29.3936C39.3658 27.6593 40.2792 25.2859 40.2792 22.9125C40.2792 20.5391 39.3658 18.1658 37.5391 16.4314C35.8037 14.6057 33.429 13.6929 31.0542 13.6929C28.6795 13.6929 26.3048 14.6057 24.5694 16.4314C23.108 17.8006 22.286 19.535 22.012 21.2694ZM30.1409 32.0409L21.9206 23.8253C22.012 25.651 22.7427 27.3854 24.0214 28.9372L24.1127 29.0285H24.204V29.1198H24.2954V29.2111H24.3867V29.3024H24.478V29.3936H24.5694C24.752 29.6675 24.9347 29.8501 25.2087 30.0326L25.3001 30.1239H25.3914V30.2152H25.4827V30.3065H25.5741C25.8481 30.489 26.1221 30.6716 26.3961 30.8542H26.4874V30.9455H26.5788L26.7614 31.0367L26.8528 31.128H26.9441L27.0354 31.2193H27.1268L27.2181 31.3106H27.3094L27.4008 31.4019H27.4921H27.5835V31.4932H27.6748L27.8575 31.5844H27.9488H28.0401L28.2228 31.6757C28.8622 31.8583 29.5015 32.0409 30.1409 32.0409Z" fill="black" fill-opacity="0.4"></path> <path d="M21.7722 33.7542L20.1992 32.1821L16.9525 35.427L18.5255 36.9991L21.7722 33.7542Z" fill="black" fill-opacity="0.4"></path> <path d="M12.8784 16.9788L8.40291 9.40221L8.12891 8.85451L8.49425 8.39809L13.9744 1.0954L14.7964 0L15.5271 1.18669L20.3679 9.31093C20.3679 9.31093 20.4593 9.40221 20.4593 9.4935L20.5506 9.67606L20.6419 9.85863C20.9159 10.4976 20.9159 11.2279 20.7333 11.9582C20.4593 12.7797 19.9112 13.4187 19.0892 13.8751C18.2672 14.3315 17.4452 14.5141 16.6231 14.3315C15.8011 14.149 15.0704 13.6925 14.6138 12.871C14.1571 12.1407 14.0657 11.2279 14.3398 10.4063C14.6138 9.67606 15.1618 8.9458 15.9838 8.48938C16.4405 8.21553 16.9885 8.03296 17.4452 8.03296L14.6138 3.28621L10.321 8.9458L15.8925 18.4393C16.3491 19.1696 16.3491 20.0824 16.0751 20.9039C15.8925 21.6342 15.2531 22.3645 14.5224 22.8209C13.7004 23.2773 12.787 23.4599 12.0564 23.2773C11.143 23.0948 10.4123 22.5471 9.95563 21.8168C9.59028 21.0865 9.49895 20.1737 9.77295 19.3521C10.047 18.6219 10.595 17.8916 11.417 17.4352C11.8737 17.1613 12.4217 16.9788 12.8784 16.9788ZM18.9065 10.4976V10.4063L18.8152 10.3151C18.7239 10.1325 18.4499 9.94991 18.0845 9.85863C17.7192 9.76735 17.2625 9.85863 16.8972 10.0412C16.5318 10.3151 16.2578 10.6802 16.0751 11.0453C15.9838 11.3192 15.9838 11.6843 16.1665 11.9582C16.3491 12.3233 16.6231 12.5059 16.9885 12.5059C17.3538 12.5971 17.8105 12.5971 18.1759 12.3233C18.5412 12.1407 18.8152 11.7756 18.9979 11.4105C19.0892 11.0453 19.0892 10.7715 18.9065 10.4976ZM13.5177 18.8044C13.1524 18.7131 12.6957 18.8044 12.3304 18.987C11.8737 19.2608 11.5997 19.5347 11.5083 19.8998C11.417 20.265 11.417 20.6301 11.5997 20.9039C11.7823 21.1778 12.0564 21.3604 12.4217 21.4517C12.787 21.5429 13.1524 21.4517 13.6091 21.2691C13.9744 20.9952 14.2484 20.7214 14.3398 20.3562C14.5224 19.9911 14.4311 19.626 14.3398 19.3521C14.1571 19.0783 13.7917 18.8957 13.5177 18.8044Z" fill="black" fill-opacity="0.4"></path></svg>