<svg data-v-1c08c737="" width="81" height="63" viewBox="0 0 81 63" fill="none" xmlns="http://www.w3.org/2000/svg"><g opacity="0.4"><path d="M80.2036 30.6738C80.1929 30.5716 80.1698 30.472 80.1413 30.3751C80.1387 30.3663 80.1378 30.3565 80.1351 30.3476C80.0675 30.1333 79.959 29.936 79.8176 29.7662C79.8167 29.7653 79.8158 29.7635 79.8149 29.7626C79.7953 29.7386 79.7695 29.72 79.7482 29.6977C79.6948 29.6408 79.6414 29.5831 79.5801 29.5333C79.5454 29.5057 79.5062 29.4844 79.4698 29.4595C79.4146 29.4221 79.3613 29.3821 79.3025 29.351C79.2572 29.327 79.2091 29.3119 79.162 29.2924C79.106 29.2692 79.0526 29.2426 78.9939 29.2257C78.929 29.2061 78.8614 29.1981 78.7946 29.1866C78.7519 29.1795 78.7119 29.1661 78.6683 29.1617C78.6657 29.1617 78.663 29.1617 78.6603 29.1617C78.6568 29.1617 78.6541 29.1599 78.6514 29.1599C78.3437 29.135 71.547 28.6061 64.0218 30.2507C63.2489 26.2369 62.2651 23.4401 62.1663 23.1663C62.1281 23.0588 62.0783 22.9556 62.0196 22.8596C61.9858 22.8045 61.9449 22.7574 61.9057 22.7067C61.8764 22.6685 61.8515 22.6267 61.8186 22.5912C61.7785 22.5476 61.7314 22.512 61.6869 22.4729C61.565 22.3645 61.4325 22.2676 61.2822 22.1973C61.1977 22.1573 61.1087 22.1298 61.0198 22.1049C61.0064 22.1013 60.9949 22.0951 60.9815 22.0915C60.8935 22.0693 60.8036 22.0586 60.7138 22.0498C60.6933 22.048 60.6738 22.0426 60.6533 22.0409C60.5688 22.0364 60.4843 22.0435 60.3998 22.0515C60.3722 22.0542 60.3446 22.0524 60.3162 22.056C60.2361 22.0675 60.1587 22.0907 60.0814 22.1138C60.0502 22.1227 60.0191 22.1253 59.9888 22.1369C59.9862 22.1378 59.9844 22.1395 59.9817 22.1404C59.9782 22.1413 59.9755 22.1422 59.972 22.1431C59.722 22.2356 54.2534 24.2847 48.5837 28.2798C45.313 22.8534 41.6723 19.1303 41.3965 18.8521C40.757 18.2067 39.6158 18.2058 38.9762 18.8521C38.7005 19.1303 35.0598 22.8534 31.7891 28.2798C26.1194 24.2847 20.6508 22.2356 20.3999 22.1431C20.3972 22.1422 20.3937 22.1422 20.391 22.1404C20.3884 22.1395 20.3866 22.1378 20.3839 22.1369C20.3483 22.1244 20.3127 22.1209 20.2781 22.1111C20.2051 22.0898 20.1322 22.0675 20.0583 22.0569C20.0148 22.0506 19.9721 22.0524 19.9285 22.0498C19.8609 22.0453 19.7924 22.0382 19.7248 22.0409C19.6723 22.0435 19.6216 22.0551 19.57 22.0622C19.5122 22.0702 19.4544 22.0746 19.3983 22.0889C19.3245 22.1075 19.2551 22.136 19.1849 22.1635C19.1537 22.176 19.1208 22.1822 19.0906 22.1964C19.0897 22.1973 19.0879 22.1982 19.087 22.1982C18.886 22.2925 18.7045 22.4249 18.5524 22.5912C18.5435 22.6009 18.5373 22.6134 18.5284 22.6232C18.4644 22.6961 18.4048 22.7734 18.3532 22.8579C18.2945 22.9539 18.2456 23.057 18.2073 23.1645C18.1086 23.4392 17.1248 26.236 16.3527 30.2498C8.82664 28.6043 2.03087 29.1341 1.72311 29.1581C1.71955 29.1581 1.71688 29.1599 1.71421 29.1599C1.71154 29.1599 1.70887 29.1599 1.70621 29.1599C1.66262 29.1643 1.62259 29.1777 1.5799 29.1848C1.51318 29.1963 1.44469 29.2043 1.37976 29.2239C1.32105 29.2417 1.26679 29.2675 1.21075 29.2915C1.1645 29.311 1.11558 29.3261 1.0711 29.3492C1.01062 29.3813 0.957247 29.4213 0.901209 29.4595C0.865629 29.4844 0.82649 29.5048 0.79269 29.5315C0.730425 29.5822 0.676165 29.64 0.621016 29.6986C0.600558 29.72 0.576541 29.7377 0.557862 29.7609C0.556972 29.7617 0.556083 29.7635 0.555193 29.7644C0.412874 29.9342 0.304354 30.1316 0.236753 30.3467C0.234084 30.3556 0.233195 30.3654 0.230526 30.3743C0.202062 30.4712 0.179825 30.5698 0.168261 30.673C0.155808 30.785 0.154919 30.8979 0.165593 31.0117C0.232305 31.73 1.90545 48.691 11.8919 57.0653C16.8766 61.2453 23.7391 62.3263 29.5066 62.3263C34.6194 62.3263 38.865 61.4773 40.1859 61.1822C41.5068 61.4773 45.7515 62.3263 50.8653 62.3263C56.6328 62.3263 63.4953 61.2444 68.48 57.0653C78.4655 48.691 80.1396 31.73 80.2063 31.0117C80.2161 30.8996 80.2152 30.7859 80.2036 30.6738ZM59.4925 26.028C59.4987 26.0484 59.505 26.0707 59.5112 26.092C59.5815 26.3374 59.6553 26.6014 59.7336 26.8894C59.7371 26.9019 59.7398 26.9116 59.7425 26.9241C59.8198 27.2121 59.9008 27.5259 59.9826 27.8531C59.9986 27.918 60.0146 27.9829 60.0315 28.0495C60.1143 28.3847 60.1979 28.7358 60.2815 29.1066C60.2904 29.1457 60.2993 29.1883 60.3082 29.2283C60.3856 29.5742 60.4621 29.9351 60.5377 30.3067C60.5519 30.3769 60.5661 30.4454 60.5804 30.5165C60.6595 30.9148 60.7369 31.3273 60.8107 31.7513C60.8259 31.8375 60.8401 31.9247 60.8552 32.0118C60.9273 32.434 60.9967 32.8661 61.0607 33.3097C61.0643 33.3355 61.0687 33.3595 61.0723 33.3853C61.1372 33.8404 61.1959 34.3089 61.2493 34.7828C61.2608 34.8877 61.2733 34.9917 61.284 35.0975C61.3347 35.5713 61.3809 36.0522 61.4174 36.5403C61.4227 36.6123 61.4263 36.6861 61.4316 36.7581C61.4636 37.207 61.4877 37.6604 61.5054 38.1182C61.509 38.2098 61.5135 38.3005 61.517 38.3921C61.5321 38.889 61.5375 39.3904 61.5339 39.8936C61.533 40.0029 61.5304 40.1122 61.5286 40.2216C61.5197 40.7274 61.5037 41.2342 61.4725 41.7427C61.4716 41.7613 61.4716 41.78 61.4699 41.7995C61.437 42.316 61.3871 42.8334 61.3275 43.3491C61.3142 43.462 61.3018 43.5749 61.2875 43.6886C61.2226 44.1971 61.1461 44.7048 61.0527 45.2088C61.0376 45.2888 61.0198 45.368 61.0038 45.448C60.9139 45.9093 60.8099 46.3672 60.6924 46.8206C60.6702 46.9068 60.6506 46.993 60.6275 47.0793C60.495 47.57 60.3429 48.0545 60.1756 48.5328C60.1392 48.6368 60.1009 48.7399 60.0627 48.843C59.8821 49.3337 59.6891 49.8191 59.4685 50.2921C56.961 55.6669 51.6818 57.4218 47.3259 57.8974C50.602 55.4731 53.8291 51.3642 53.8291 44.5767C53.8291 39.8615 52.2644 35.2601 50.2471 31.2801C53.8469 28.7003 57.4609 26.9268 59.4925 26.028ZM40.1868 22.5752C43.1311 25.9462 50.4205 35.2379 50.4205 44.5767C50.4205 54.4908 42.0139 57.2137 40.1859 57.6885C38.3482 57.2111 29.9496 54.4854 29.9496 44.5767C29.9505 35.2566 37.2435 25.9506 40.1868 22.5752ZM26.5437 44.5767C26.5437 51.3624 29.769 55.4704 33.0441 57.8947C28.6892 57.4191 23.4109 55.6642 20.9043 50.2921C20.6837 49.8191 20.4906 49.3337 20.3101 48.843C20.2718 48.739 20.2327 48.6359 20.1962 48.5319C20.029 48.0527 19.8769 47.5682 19.7444 47.0766C19.7212 46.9921 19.7017 46.9059 19.6803 46.8214C19.5629 46.3672 19.4588 45.9085 19.369 45.4462C19.353 45.3662 19.3352 45.2871 19.321 45.207C19.2276 44.703 19.1511 44.1963 19.0861 43.6878C19.0719 43.574 19.0586 43.4611 19.0461 43.3473C18.9865 42.8317 18.9367 42.3152 18.9038 41.7987C18.9029 41.7791 18.902 41.7595 18.9011 41.7409C18.87 41.2341 18.8531 40.7274 18.8451 40.2234C18.8433 40.1131 18.8406 40.002 18.8397 39.8918C18.8362 39.3895 18.8406 38.889 18.8566 38.3929C18.8593 38.2996 18.8646 38.2063 18.8682 38.1129C18.886 37.6586 18.91 37.207 18.9411 36.7616C18.9465 36.687 18.95 36.6114 18.9563 36.5367C18.9927 36.0522 19.0381 35.5748 19.0888 35.1046C19.1004 34.9926 19.1137 34.8814 19.1262 34.7703C19.1795 34.3036 19.2373 33.8413 19.3014 33.3924C19.3067 33.3533 19.313 33.3168 19.3192 33.2777C19.3806 32.8519 19.4473 32.4376 19.5166 32.0313C19.5335 31.9318 19.5504 31.8322 19.5673 31.7344C19.6394 31.3228 19.7141 30.9219 19.7915 30.5343C19.8093 30.4445 19.828 30.3583 19.8458 30.2694C19.9151 29.928 19.9854 29.5955 20.0566 29.2772C20.0708 29.2132 20.085 29.1466 20.0993 29.0843C20.1784 28.7341 20.2576 28.4016 20.3359 28.0824C20.3581 27.9909 20.3803 27.9011 20.4026 27.8122C20.4782 27.5099 20.5538 27.2166 20.6259 26.9472C20.6401 26.8939 20.6534 26.8476 20.6677 26.7952C20.7299 26.5676 20.7886 26.3542 20.8456 26.1551C20.858 26.1124 20.8705 26.0689 20.882 26.0271C22.911 26.9232 26.5197 28.6941 30.1284 31.2801C28.1083 35.2601 26.5437 39.8615 26.5437 44.5767ZM12.9299 53.3955C12.8516 53.3182 12.7734 53.2408 12.696 53.1626C12.3419 52.799 11.9995 52.4239 11.6713 52.0354C11.6143 51.9678 11.5592 51.8976 11.5031 51.8291C11.2061 51.4682 10.9187 51.0975 10.6421 50.7179C10.5932 50.6512 10.5425 50.5854 10.4945 50.5188C10.1974 50.1027 9.91361 49.676 9.64054 49.2431C9.57916 49.1453 9.51868 49.0475 9.45819 48.9497C9.18689 48.5079 8.9236 48.0616 8.67543 47.6082C8.66565 47.5895 8.65675 47.5718 8.64697 47.5531C8.40502 47.1077 8.17642 46.657 7.95583 46.2045C7.9069 46.1049 7.85798 46.0045 7.80995 45.9049C7.5938 45.4515 7.38744 44.9963 7.19175 44.5412C7.15439 44.4541 7.11881 44.3669 7.08234 44.2798C6.90622 43.862 6.73899 43.4451 6.57888 43.029C6.55131 42.957 6.52284 42.8859 6.49527 42.8139C6.32359 42.3596 6.1626 41.908 6.0096 41.46C5.97313 41.3542 5.93755 41.2484 5.90286 41.1426C5.75343 40.6963 5.61022 40.2536 5.47857 39.8189C5.4679 39.7815 5.45722 39.746 5.44655 39.7095C5.32202 39.2962 5.20638 38.8917 5.09698 38.4934C5.07029 38.3983 5.04361 38.3023 5.0187 38.2089C4.90929 37.8035 4.807 37.4062 4.71271 37.0203C4.69136 36.9332 4.67179 36.8497 4.65134 36.7634C4.5695 36.4221 4.49212 36.0896 4.42096 35.7686C4.40761 35.7064 4.39249 35.6415 4.37915 35.5802C4.30176 35.2246 4.23238 34.885 4.16745 34.5596C4.15055 34.4761 4.13543 34.3943 4.11942 34.3134C4.05893 33.9996 4.002 33.6955 3.95219 33.4155C3.94419 33.3719 3.93796 33.3328 3.93084 33.2893C3.88726 33.0368 3.84723 32.7994 3.81254 32.5789C3.8072 32.5452 3.80187 32.5105 3.79653 32.4776C6.25599 32.4243 10.9152 32.5265 15.8101 33.6191C15.0994 39.1406 15.1163 45.9467 17.8159 51.7313C19.2765 54.8624 21.4086 57.0164 23.7889 58.4868C20.2772 57.9285 16.8001 56.7381 14.0809 54.4579C13.6815 54.1227 13.3008 53.7636 12.9299 53.3955ZM56.5945 58.4797C58.9695 57.0093 61.0963 54.857 62.5551 51.7313C65.2538 45.9467 65.2716 39.1406 64.5609 33.6182C69.4469 32.5301 74.1159 32.4323 76.5744 32.4776C76.5709 32.5016 76.5664 32.5265 76.5629 32.5505C76.5238 32.7976 76.4793 33.0634 76.4295 33.3515C76.4268 33.3675 76.4241 33.3817 76.4215 33.3977C76.3699 33.6884 76.3112 34.0049 76.248 34.332C76.2347 34.4023 76.2204 34.4725 76.2062 34.5436C76.1395 34.8788 76.0674 35.2281 75.9883 35.5953C75.9785 35.6406 75.9669 35.6877 75.9571 35.734C75.8824 36.0736 75.8006 36.4265 75.7134 36.7883C75.6956 36.8621 75.6787 36.935 75.66 37.0097C75.564 37.4008 75.4599 37.8053 75.3487 38.2178C75.3256 38.3049 75.3007 38.3938 75.2767 38.4818C75.1637 38.8917 75.0454 39.3086 74.9164 39.7344C74.9084 39.7611 74.9013 39.7869 74.8933 39.8135C74.7599 40.2527 74.6149 40.7016 74.4637 41.1533C74.4299 41.2528 74.397 41.3533 74.3623 41.4528C74.2075 41.9036 74.0456 42.3587 73.873 42.8166C73.8472 42.885 73.8197 42.9535 73.793 43.0219C73.632 43.4415 73.463 43.862 73.2851 44.2834C73.2495 44.3687 73.2148 44.4532 73.1783 44.5385C72.9827 44.9955 72.7745 45.4524 72.5584 45.9067C72.5121 46.0045 72.4641 46.1014 72.4169 46.1992C72.1937 46.657 71.9624 47.113 71.7169 47.5638C71.7098 47.5771 71.7027 47.5904 71.6955 47.6038C71.4465 48.0598 71.1814 48.5079 70.9092 48.9515C70.8505 49.0475 70.7918 49.1435 70.7313 49.2386C70.4574 49.6733 70.1727 50.1018 69.8739 50.5196C69.8276 50.5845 69.7787 50.6477 69.7315 50.7117C69.454 51.093 69.1649 51.4655 68.8661 51.8291C68.81 51.8967 68.7566 51.966 68.6997 52.0336C68.3715 52.423 68.0281 52.7981 67.6741 53.1617C67.5976 53.24 67.5193 53.3164 67.442 53.3937C67.0702 53.7627 66.6894 54.1209 66.2892 54.457C63.578 56.7328 60.1045 57.9214 56.5945 58.4797Z" fill="black"></path> <path d="M40.1864 17.522C45.02 17.522 48.9524 13.5909 48.9524 8.7601C48.9524 3.92933 45.02 0 40.1864 0C35.3529 0 31.4204 3.93022 31.4204 8.76099C31.4204 13.5918 35.3529 17.522 40.1864 17.522ZM40.1864 3.40394C43.1413 3.40394 45.5457 5.80688 45.5457 8.7601C45.5457 11.7142 43.1413 14.1172 40.1864 14.1172C37.2306 14.1172 34.8263 11.7142 34.8263 8.7601C34.8263 5.80688 37.2306 3.40394 40.1864 3.40394Z" fill="black"></path></g></svg>