<svg width="44" height="44" viewBox="0 0 44 44" fill="none" xmlns="http://www.w3.org/2000/svg">
<rect x="1.35205" y="1.08337" width="42.1019" height="42.1019" rx="3.5" fill="white"/>
<path d="M22.4027 18.2067C20.24 18.2067 18.4751 19.9716 18.4751 22.1343C18.4751 24.2969 20.24 26.0618 22.4027 26.0618C24.5654 26.0618 26.3303 24.2969 26.3303 22.1343C26.3303 19.9716 24.5654 18.2067 22.4027 18.2067ZM34.1825 22.1343C34.1825 20.5078 34.1972 18.8962 34.1058 17.2727C34.0145 15.387 33.5843 13.7134 32.2054 12.3345C30.8235 10.9526 29.1529 10.5254 27.2672 10.4341C25.6408 10.3427 24.0291 10.3574 22.4056 10.3574C20.7792 10.3574 19.1675 10.3427 17.544 10.4341C15.6583 10.5254 13.9848 10.9556 12.6059 12.3345C11.224 13.7164 10.7968 15.387 10.7054 17.2727C10.6141 18.8991 10.6288 20.5108 10.6288 22.1343C10.6288 23.7577 10.6141 25.3724 10.7054 26.9959C10.7968 28.8816 11.2269 30.5551 12.6059 31.934C13.9877 33.3159 15.6583 33.7431 17.544 33.8345C19.1705 33.9258 20.7822 33.9111 22.4056 33.9111C24.032 33.9111 25.6437 33.9258 27.2672 33.8345C29.1529 33.7431 30.8265 33.313 32.2054 31.934C33.5873 30.5522 34.0145 28.8816 34.1058 26.9959C34.2001 25.3724 34.1825 23.7607 34.1825 22.1343ZM22.4027 28.1774C19.0585 28.1774 16.3596 25.4785 16.3596 22.1343C16.3596 18.7901 19.0585 16.0912 22.4027 16.0912C25.7469 16.0912 28.4458 18.7901 28.4458 22.1343C28.4458 25.4785 25.7469 28.1774 22.4027 28.1774ZM28.6933 17.255C27.9125 17.255 27.2819 16.6245 27.2819 15.8437C27.2819 15.0629 27.9125 14.4323 28.6933 14.4323C29.4741 14.4323 30.1046 15.0629 30.1046 15.8437C30.1048 16.0291 30.0685 16.2127 29.9977 16.384C29.9268 16.5554 29.8229 16.7111 29.6918 16.8422C29.5607 16.9733 29.405 17.0772 29.2337 17.148C29.0623 17.2189 28.8787 17.2552 28.6933 17.255Z" fill="#4F4CEE"/>
<rect x="1.35205" y="1.08337" width="42.1019" height="42.1019" rx="3.5" stroke="#4F4CEE"/>
</svg>
