<svg width="37" height="37" viewBox="0 0 37 37" fill="none" xmlns="http://www.w3.org/2000/svg">
<g clip-path="url(#clip0_167_16638)">
<path d="M16.1875 32.375C16.1875 32.375 13.875 32.375 13.875 30.0625C13.875 27.75 16.1875 20.8125 25.4375 20.8125C34.6875 20.8125 37 27.75 37 30.0625C37 32.375 34.6875 32.375 34.6875 32.375H16.1875ZM25.4375 18.5C27.2774 18.5 29.042 17.7691 30.3431 16.4681C31.6441 15.167 32.375 13.4024 32.375 11.5625C32.375 9.72256 31.6441 7.95798 30.3431 6.65695C29.042 5.35591 27.2774 4.625 25.4375 4.625C23.5976 4.625 21.833 5.35591 20.5319 6.65695C19.2309 7.95798 18.5 9.72256 18.5 11.5625C18.5 13.4024 19.2309 15.167 20.5319 16.4681C21.833 17.7691 23.5976 18.5 25.4375 18.5Z" fill="#4F4CEE"/>
<path fill-rule="evenodd" clip-rule="evenodd" d="M12.062 32.375C11.7192 31.6531 11.5482 30.8616 11.5625 30.0625C11.5625 26.9291 13.135 23.7031 16.0395 21.46C14.5898 21.0133 13.0794 20.7949 11.5625 20.8125C2.3125 20.8125 0 27.75 0 30.0625C0 32.375 2.3125 32.375 2.3125 32.375H12.062Z" fill="#4F4CEE"/>
<path d="M10.4062 18.5C11.9395 18.5 13.41 17.8909 14.4942 16.8067C15.5784 15.7225 16.1875 14.252 16.1875 12.7188C16.1875 11.1855 15.5784 9.71498 14.4942 8.63079C13.41 7.54659 11.9395 6.9375 10.4062 6.9375C8.87297 6.9375 7.40248 7.54659 6.31829 8.63079C5.23409 9.71498 4.625 11.1855 4.625 12.7188C4.625 14.252 5.23409 15.7225 6.31829 16.8067C7.40248 17.8909 8.87297 18.5 10.4062 18.5Z" fill="#4F4CEE"/>
</g>
<defs>
<clipPath id="clip0_167_16638">
<rect width="37" height="37" fill="white"/>
</clipPath>
</defs>
</svg>
