<svg width="44" height="44" viewBox="0 0 44 44" fill="none" xmlns="http://www.w3.org/2000/svg">
<rect x="1.35205" y="0.814819" width="42.1019" height="42.1019" rx="3.5" fill="white"/>
<g clip-path="url(#clip0_167_16660)">
<path d="M37.0397 12.9865C35.99 13.4517 34.8623 13.766 33.6768 13.908C34.9 13.1761 35.8152 12.0242 36.2515 10.6671C35.1022 11.3497 33.8445 11.8302 32.5328 12.0877C31.6508 11.1459 30.4825 10.5217 29.2094 10.3119C27.9362 10.1022 26.6294 10.3186 25.4919 10.9277C24.3544 11.5367 23.4497 12.5042 22.9184 13.6801C22.3872 14.856 22.2589 16.1743 22.5537 17.4305C20.2251 17.3136 17.9471 16.7084 15.8675 15.6541C13.7879 14.5998 11.9533 13.12 10.4827 11.3108C9.9798 12.1782 9.69065 13.1839 9.69065 14.255C9.69009 15.2192 9.92754 16.1687 10.3819 17.0191C10.8363 17.8695 11.4936 18.5947 12.2954 19.1302C11.3655 19.1006 10.4561 18.8493 9.64288 18.3973V18.4727C9.64279 19.825 10.1106 21.1358 10.9669 22.1825C11.8232 23.2292 13.0152 23.9474 14.3408 24.2153C13.4781 24.4488 12.5737 24.4831 11.6958 24.3159C12.0698 25.4795 12.7983 26.497 13.7793 27.226C14.7604 27.9551 15.9448 28.359 17.1669 28.3814C15.0924 30.01 12.5304 30.8933 9.89305 30.8894C9.42588 30.8896 8.9591 30.8623 8.49512 30.8077C11.1722 32.529 14.2884 33.4425 17.4711 33.4389C28.2447 33.4389 34.1344 24.5157 34.1344 16.7768C34.1344 16.5254 34.1281 16.2714 34.1168 16.02C35.2625 15.1915 36.2513 14.1656 37.0372 12.9903L37.0397 12.9865Z" fill="#4F4CEE"/>
</g>
<rect x="1.35205" y="0.814819" width="42.1019" height="42.1019" rx="3.5" stroke="#4F4CEE"/>
<defs>
<clipPath id="clip0_167_16660">
<rect width="30.1713" height="30.1713" fill="white" transform="translate(7.31738 6.78015)"/>
</clipPath>
</defs>
</svg>
