<svg width="37" height="37" viewBox="0 0 37 37" fill="none" xmlns="http://www.w3.org/2000/svg">
<path d="M34.5321 30.9297L19.5008 4.91406C19.2768 4.52744 18.8902 4.33594 18.4999 4.33594C18.1097 4.33594 17.7195 4.52744 17.4991 4.91406L2.46781 30.9297C2.02338 31.7029 2.57982 32.6641 3.46869 32.6641H33.5312C34.4201 32.6641 34.9765 31.7029 34.5321 30.9297ZM17.3437 15.0312C17.3437 14.8723 17.4738 14.7422 17.6327 14.7422H19.3671C19.5261 14.7422 19.6562 14.8723 19.6562 15.0312V21.6797C19.6562 21.8387 19.5261 21.9688 19.3671 21.9688H17.6327C17.4738 21.9688 17.3437 21.8387 17.3437 21.6797V15.0312ZM18.4999 27.75C18.0461 27.7407 17.6139 27.5539 17.2962 27.2297C16.9785 26.9054 16.8006 26.4696 16.8006 26.0156C16.8006 25.5617 16.9785 25.1258 17.2962 24.8016C17.6139 24.4773 18.0461 24.2905 18.4999 24.2812C18.9538 24.2905 19.3859 24.4773 19.7036 24.8016C20.0213 25.1258 20.1993 25.5617 20.1993 26.0156C20.1993 26.4696 20.0213 26.9054 19.7036 27.2297C19.3859 27.5539 18.9538 27.7407 18.4999 27.75Z" fill="#4F4CEE"/>
</svg>
