<svg width="112" height="129" viewBox="0 0 112 129" fill="none" xmlns="http://www.w3.org/2000/svg">
<path d="M63.6847 110.178L55.1369 50.7402C55.035 50.0428 54.7859 49.375 54.4061 48.7812C54.0262 48.1874 53.5243 47.6813 52.9338 47.2965L27.4272 30.7482C26.4245 30.0943 25.2186 29.8264 24.0333 29.9941C22.8481 30.1619 21.7639 30.754 20.9821 31.6604L1.19075 54.7313C0.732181 55.2662 0.393205 55.8929 0.19654 56.5694C-0.000124681 57.2459 -0.0499363 57.9567 0.050437 58.654L8.60282 118.087C8.69341 118.731 8.91019 119.351 9.24073 119.911C9.57127 120.47 10.0091 120.959 10.529 121.35C11.049 121.74 11.6408 122.024 12.2707 122.185C12.9006 122.346 13.556 122.381 14.1995 122.288L36.8416 119.032L59.4838 115.775C60.1276 115.684 60.7471 115.467 61.307 115.137C61.8668 114.806 62.3559 114.369 62.7462 113.849C63.1364 113.329 63.4202 112.737 63.5813 112.107C63.7424 111.477 63.7775 110.822 63.6847 110.178ZM27.5275 54.2068C26.3936 54.3683 25.2372 54.19 24.2045 53.6945C23.1719 53.199 22.3093 52.4084 21.7258 51.4228C21.1424 50.4371 20.8642 49.3007 20.9264 48.157C20.9887 47.0133 21.3886 45.9137 22.0757 44.9972C22.7627 44.0807 23.706 43.3885 24.7864 43.008C25.8667 42.6275 27.0356 42.5758 28.1453 42.8595C29.255 43.1432 30.2557 43.7495 31.021 44.6017C31.7862 45.454 32.2816 46.514 32.4446 47.6477C32.6621 49.1695 32.2663 50.7154 31.3442 51.9454C30.4221 53.1754 29.0493 53.9888 27.5275 54.2068Z" fill="#FC6435"/>
<path d="M55.1368 50.7408C55.0349 50.0433 54.7858 49.3755 54.406 48.7817C54.0261 48.188 53.5242 47.6819 52.9337 47.297L27.4271 30.7487C26.8446 30.3724 26.1891 30.1234 25.5037 30.018C24.8182 29.9127 24.1183 29.9534 23.4497 30.1375L12.4388 48.6608C12.0049 49.3884 11.732 50.2004 11.6384 51.0423C11.5448 51.8842 11.6326 52.7363 11.896 53.5414L33.4388 119.52L36.8415 119.032L59.4837 115.775C60.1263 115.683 60.7444 115.465 61.3026 115.134C61.8609 114.803 62.3484 114.365 62.7373 113.845C63.1262 113.325 63.4088 112.734 63.569 112.105C63.7292 111.476 63.7638 110.821 63.6709 110.179L55.1368 50.7408Z" fill="#F14510"/>
<path d="M50.3155 125.755C49.6552 125.755 49.0096 125.559 48.4607 125.192C47.9117 124.825 47.4841 124.303 47.2321 123.693L17.4561 51.6523C17.2777 51.2152 17.194 50.7454 17.2105 50.2736C17.2271 49.8019 17.3434 49.339 17.5519 48.9155L35.0717 13.5565C35.4294 12.8317 36.0385 12.2617 36.7854 11.9529C37.5324 11.644 38.3662 11.6174 39.1313 11.878L76.5063 24.5492C76.9557 24.7033 77.3673 24.9508 77.714 25.2755C78.0607 25.6002 78.3347 25.9947 78.5179 26.433L108.294 98.5011C108.628 99.3208 108.624 100.24 108.282 101.056C107.94 101.873 107.288 102.521 106.469 102.857L51.6018 125.499C51.1985 125.667 50.7661 125.754 50.3292 125.755H50.3155ZM44.842 20.8455C43.2714 20.843 41.7199 21.1892 40.2993 21.8589C38.8787 22.5287 37.6245 23.5054 36.627 24.7185C35.6295 25.9317 34.9137 27.3511 34.5312 28.8743C34.1487 30.3976 34.1089 31.9868 34.4149 33.5272C34.7209 35.0677 35.3649 36.5211 36.3005 37.7826C37.2361 39.044 38.44 40.0821 39.8254 40.822C41.2107 41.5619 42.743 41.9851 44.3118 42.0611C45.8805 42.1372 47.4465 41.8641 48.897 41.2617C51.1673 40.3244 53.0422 38.6285 54.2016 36.4632C55.361 34.2978 55.7333 31.7973 55.2548 29.3881C54.7763 26.979 53.4767 24.8105 51.5778 23.2526C49.6788 21.6947 47.2982 20.8439 44.842 20.8455Z" fill="#FFE8E2"/>
<path d="M75.0607 29.0877L44.076 105.58C43.7592 106.355 43.7592 107.223 44.076 107.998L50.0741 122.512C50.092 122.558 50.124 122.598 50.1657 122.626C50.2074 122.654 50.2567 122.668 50.3067 122.667H50.3979L105.297 99.979C105.329 99.9671 105.357 99.9488 105.38 99.9252C105.404 99.9016 105.422 99.8733 105.434 99.8422C105.448 99.8121 105.455 99.7794 105.455 99.7464C105.455 99.7133 105.448 99.6807 105.434 99.6506L76.2831 29.0832C76.2327 28.9624 76.1475 28.8593 76.0385 28.787C75.9294 28.7146 75.8013 28.6763 75.6704 28.6768C75.5395 28.6773 75.4117 28.7166 75.3032 28.7897C75.1947 28.8629 75.1103 28.9666 75.0607 29.0877Z" fill="#FFE8E2"/>
<path d="M25.2377 26.4285L27.345 22.182C18.3867 17.5797 11.7728 11.9009 10.8834 8.04204C10.7711 7.64871 10.7539 7.23434 10.8332 6.83306C10.9125 6.43179 11.0861 6.0551 11.3395 5.73404C11.7135 5.23686 12.311 4.67126 13.8254 4.7488C21.0094 5.10458 35.4002 18.6424 41.6993 29.0649C42.0375 29.5751 42.5599 29.9348 43.1572 30.0688C43.7546 30.2027 44.3805 30.1005 44.9042 29.7836C45.4279 29.4666 45.8088 28.9595 45.9673 28.3682C46.1257 27.7769 46.0494 27.1473 45.7543 26.611C39.3822 16.0744 23.8739 0.502261 14.0489 0.00964368C11.3121 -0.108949 9.03149 0.867161 7.53083 2.8878C6.86655 3.76342 6.40768 4.77722 6.18818 5.85416C5.96869 6.93111 5.99419 8.04362 6.26279 9.10938C8.0873 17.0916 21.2329 24.3759 25.2103 26.4422L25.2377 26.4285Z" fill="#FC6435"/>
<path d="M58.8129 92.3475C58.4567 92.3484 58.1058 92.2616 57.7911 92.0948C57.4763 91.9281 57.2075 91.6864 57.0082 91.3912C56.809 91.096 56.6854 90.7563 56.6484 90.402C56.6115 90.0477 56.6623 89.6898 56.7963 89.3598L67.3288 63.3805C67.4359 63.1162 67.594 62.8756 67.7942 62.6723C67.9943 62.4691 68.2324 62.3073 68.4951 62.1962C68.7577 62.085 69.0397 62.0267 69.3248 62.0245C69.61 62.0223 69.8929 62.0763 70.1572 62.1834C70.4215 62.2905 70.6621 62.4486 70.8653 62.6487C71.0685 62.8488 71.2303 63.087 71.3415 63.3496C71.4527 63.6123 71.511 63.8942 71.5132 64.1794C71.5154 64.4646 71.4614 64.7474 71.3543 65.0118L60.8218 90.9911C60.6595 91.3911 60.3818 91.7338 60.024 91.9754C59.6662 92.2169 59.2446 92.3465 58.8129 92.3475Z" fill="#FC6435"/>
<path d="M54.546 79.3598C53.7684 79.3584 52.9983 79.2075 52.2777 78.9154C51.3584 78.5421 50.5453 77.9479 49.9105 77.1854C49.2757 76.4229 48.8387 75.5156 48.6382 74.5439C48.4377 73.5722 48.4799 72.5661 48.761 71.6146C49.0421 70.6631 49.5535 69.7955 50.2499 69.0889C50.9463 68.3822 51.8063 67.8581 52.7535 67.563C53.7008 67.268 54.7062 67.2111 55.6808 67.3973C56.6553 67.5836 57.5689 68.0072 58.3406 68.6308C59.1123 69.2544 59.7184 70.0586 60.1051 70.9723C60.4917 71.8901 60.6454 72.8892 60.5526 73.8808C60.4598 74.8724 60.1233 75.8256 59.5731 76.6557C59.023 77.4858 58.2761 78.1671 57.399 78.6389C56.522 79.1106 55.5419 79.3583 54.546 79.3598ZM54.546 71.6325C54.3208 71.6316 54.0978 71.6771 53.8909 71.7661C53.5841 71.8967 53.3228 72.1153 53.1401 72.3942C52.9573 72.6732 52.8614 73 52.8642 73.3335C52.8671 73.667 52.9686 73.9921 53.1561 74.2679C53.3436 74.5437 53.6086 74.7578 53.9176 74.8831C54.2266 75.0084 54.5659 75.0394 54.8925 74.9721C55.2191 74.9048 55.5185 74.7423 55.7528 74.505C55.9871 74.2677 56.1459 73.9663 56.2091 73.6389C56.2723 73.3115 56.2371 72.9727 56.1079 72.6652C55.9773 72.3585 55.7593 72.0971 55.4811 71.9134C55.2029 71.7298 54.8768 71.6321 54.5434 71.6325H54.546Z" fill="#FC6435"/>
<path d="M73.6256 87.0866C72.1286 87.0893 70.6839 86.5357 69.572 85.5332C68.4601 84.5307 67.7604 83.1508 67.6087 81.6614C67.457 80.172 67.8641 78.6794 68.751 77.4733C69.6379 76.2672 70.9413 75.4336 72.4082 75.1345C73.8751 74.8353 75.4008 75.0919 76.6892 75.8543C77.9776 76.6168 78.9367 77.8308 79.3803 79.2606C79.824 80.6904 79.7205 82.2341 79.0901 83.592C78.4596 84.9498 77.3471 86.025 75.9685 86.6087C75.2271 86.9224 74.4306 87.0849 73.6256 87.0866ZM73.6256 79.3593C73.3997 79.3589 73.1759 79.4044 72.968 79.4929C72.6591 79.6227 72.3957 79.8413 72.2111 80.121C72.0266 80.4007 71.9291 80.7288 71.9312 81.0639C71.9333 81.3989 72.0347 81.7259 72.2227 82.0032C72.4107 82.2806 72.6767 82.496 72.9872 82.622C73.2977 82.7481 73.6385 82.7792 73.9667 82.7114C74.2948 82.6435 74.5955 82.4799 74.8305 82.2411C75.0656 82.0023 75.2245 81.6991 75.2871 81.3699C75.3498 81.0408 75.3133 80.7004 75.1824 80.392C75.0518 80.0873 74.8347 79.8275 74.558 79.6449C74.2813 79.4622 73.9572 79.3647 73.6256 79.3644V79.3593Z" fill="#FC6435"/>
</svg>
