<svg width="72" height="78" viewBox="0 0 72 78" fill="none" xmlns="http://www.w3.org/2000/svg">
<path d="M16.0149 33.3271L0.448885 59.2001C-0.443135 60.6827 0.0356773 62.6075 1.51828 63.4996L16.0147 72.2211V33.3271H16.0149Z" fill="#FC6435"/>
<path d="M70.4818 14.2518L55.9852 5.53027V44.4243L71.5512 18.5513C72.443 17.0687 71.9642 15.1437 70.4818 14.2518Z" fill="#FC6435"/>
<path d="M55.986 3.13209V74.6193C55.986 76.348 54.5827 77.7514 52.8524 77.7514H42.8116C42.1608 74.5865 39.3588 72.2053 35.9998 72.2053C32.6409 72.2053 29.8374 74.5865 29.1865 77.7514H19.1473C17.417 77.7514 16.0137 76.348 16.0137 74.6193V3.13209C16.0137 1.40333 17.417 0 19.1473 0H29.1865C29.8374 3.16489 32.6409 5.54604 35.9998 5.54604C39.3588 5.54604 42.1608 3.16489 42.8116 0H52.8524C54.5827 0 55.986 1.40333 55.986 3.13209Z" fill="#FC6435" fill-opacity="0.1"/>
<path d="M55.9854 71.7993V74.6189C55.9854 76.3483 54.5819 77.7516 52.8526 77.7516H42.812C42.1603 74.5859 39.3581 72.2051 35.9997 72.2051C32.6414 72.2051 29.8376 74.5859 29.186 77.7516H19.147C17.4178 77.7516 16.0142 76.3481 16.0142 74.6189V71.7993C16.0142 73.5287 17.4176 74.932 19.147 74.932H26.6687C28.1005 71.1728 31.7375 68.5005 35.9997 68.5005C40.2619 68.5005 43.8974 71.1728 45.3292 74.932H52.8526C54.5819 74.932 55.9854 73.5287 55.9854 71.7993Z" fill="#FC6435"/>
<path d="M13.1952 70.5247L16.0148 72.221V33.3271L13.1952 38.0135V70.5247Z" fill="#F14510"/>
<path d="M58.8047 7.22669L55.9852 5.53027V44.4243L58.8047 39.7379V7.22669Z" fill="#F14510"/>
<path d="M37.6325 19.4889L39.9544 23.4035C40.2209 23.8529 40.6609 24.1726 41.1705 24.2871L45.611 25.2857C47.0174 25.6019 47.5718 27.3086 46.62 28.391L43.6145 31.8089C43.2695 32.2012 43.1015 32.7184 43.15 33.2385L43.5725 37.7703C43.7062 39.2055 42.2545 40.2602 40.9309 39.6895L36.7514 37.8872C36.2717 37.6804 35.7279 37.6804 35.2482 37.8872L31.0687 39.6895C29.7451 40.2602 28.2933 39.2055 28.4271 37.7703L28.8496 33.2385C28.898 32.7184 28.7301 32.2012 28.385 31.8089L25.3796 28.391C24.4277 27.3086 24.9823 25.602 26.3885 25.2857L30.8291 24.2871C31.3387 24.1724 31.7786 23.8529 32.0451 23.4035L34.3671 19.4889C35.1028 18.2491 36.8972 18.2491 37.6325 19.4889Z" fill="#FC6435"/>
<path d="M43.4016 35.9382C42.9872 36.8128 41.9231 37.2983 40.9309 36.8705L36.7514 35.0682C36.2717 34.8614 35.7279 34.8614 35.2482 35.0682L31.0687 36.8705C30.0765 37.2983 29.0124 36.8128 28.598 35.9382L28.4271 37.7707C28.2933 39.2059 29.7451 40.2606 31.0687 39.6899L35.2482 37.8876C35.7279 37.6808 36.2717 37.6808 36.7514 37.8876L40.9309 39.6899C42.2545 40.2606 43.7063 39.2059 43.5725 37.7707L43.4016 35.9382Z" fill="#F14510"/>
<path d="M55.961 52.6602H54.3965C53.7472 52.6602 53.2231 53.1859 53.2231 53.8336C53.2231 54.4812 53.7472 55.007 54.3965 55.007H55.961C55.9687 55.007 55.9781 55.007 55.986 55.0055V52.6618C55.9783 52.6602 55.9689 52.6602 55.961 52.6602ZM50.4854 52.6602H48.9209C48.2717 52.6602 47.7475 53.1859 47.7475 53.8336C47.7475 54.4812 48.2716 55.007 48.9209 55.007H50.4854C51.1331 55.007 51.6588 54.4812 51.6588 53.8336C51.6586 53.1857 51.1331 52.6602 50.4854 52.6602ZM45.0096 52.6602H43.4452C42.796 52.6602 42.2718 53.1859 42.2718 53.8336C42.2718 54.4812 42.7958 55.007 43.4452 55.007H45.0096C45.6573 55.007 46.1831 54.4812 46.1831 53.8336C46.1831 53.1857 45.6573 52.6602 45.0096 52.6602ZM39.5341 52.6602H37.9695C37.3203 52.6602 36.796 53.1859 36.796 53.8336C36.796 54.4812 37.3201 55.007 37.9695 55.007H39.5339C40.1816 55.007 40.7073 54.4812 40.7073 53.8336C40.7073 53.1857 40.1817 52.6602 39.5341 52.6602ZM34.0583 52.6602H32.4939C31.8447 52.6602 31.3205 53.1859 31.3205 53.8336C31.3205 54.4812 31.8445 55.007 32.4939 55.007H34.0583C34.706 55.007 35.2317 54.4812 35.2317 53.8336C35.2317 53.1857 34.706 52.6602 34.0583 52.6602ZM28.5826 52.6602H27.0181C26.3689 52.6602 25.8447 53.1859 25.8447 53.8336C25.8447 54.4812 26.3688 55.007 27.0181 55.007H28.5826C29.2303 55.007 29.756 54.4812 29.756 53.8336C29.756 53.1857 29.2303 52.6602 28.5826 52.6602ZM23.107 52.6602H21.5426C20.8934 52.6602 20.3691 53.1859 20.3691 53.8336C20.3691 54.4812 20.8932 55.007 21.5426 55.007H23.107C23.7547 55.007 24.2804 54.4812 24.2804 53.8336C24.2804 53.1857 23.7547 52.6602 23.107 52.6602ZM17.6313 52.6602H16.0668C16.0497 52.6602 16.0308 52.6602 16.0137 52.6633V55.0038C16.0308 55.007 16.0497 55.007 16.0668 55.007H17.6313C18.279 55.007 18.8047 54.4812 18.8047 53.8336C18.8047 53.1857 18.279 52.6602 17.6313 52.6602Z" fill="#FC6435"/>
</svg>
