<svg width="20" height="20" viewBox="0 0 20 20" fill="none" xmlns="http://www.w3.org/2000/svg">
<g clip-path="url(#clip0_1344_382)">
<path d="M16.6667 2.50004H15.8334V1.66671C15.8334 1.20837 15.4584 0.833374 15.0001 0.833374C14.5417 0.833374 14.1667 1.20837 14.1667 1.66671V2.50004H5.83341V1.66671C5.83341 1.20837 5.45841 0.833374 5.00008 0.833374C4.54175 0.833374 4.16675 1.20837 4.16675 1.66671V2.50004H3.33341C2.41675 2.50004 1.66675 3.25004 1.66675 4.16671V17.5C1.66675 18.4167 2.41675 19.1667 3.33341 19.1667H16.6667C17.5834 19.1667 18.3334 18.4167 18.3334 17.5V4.16671C18.3334 3.25004 17.5834 2.50004 16.6667 2.50004ZM15.8334 17.5H4.16675C3.70841 17.5 3.33341 17.125 3.33341 16.6667V6.66671H16.6667V16.6667C16.6667 17.125 16.2917 17.5 15.8334 17.5Z" fill="#5C5C5F"/>
</g>
<defs>
<clipPath id="clip0_1344_382">
<rect width="20" height="20" fill="white"/>
</clipPath>
</defs>
</svg>
