<svg width="44" height="44" viewBox="0 0 44 44" fill="none" xmlns="http://www.w3.org/2000/svg">
<rect x="1.35205" y="0.546265" width="42.1019" height="42.1019" rx="3.5" fill="white"/>
<g clip-path="url(#clip0_167_16661)">
<path fill-rule="evenodd" clip-rule="evenodd" d="M7.31738 21.6815C7.31738 29.1816 12.7646 35.4182 19.8888 36.6829V25.7873H16.1173V21.5972H19.8888V18.2445C19.8888 14.473 22.3188 12.3787 25.7558 12.3787C26.8445 12.3787 28.0187 12.5459 29.1073 12.7131V16.5687H27.1802C25.3359 16.5687 24.9173 17.4902 24.9173 18.6643V21.5972H28.9401L28.2701 25.7873H24.9173V36.6829C32.0415 35.4182 37.4887 29.1828 37.4887 21.6815C37.4887 13.3379 30.7001 6.5116 22.403 6.5116C14.1059 6.5116 7.31738 13.3379 7.31738 21.6815Z" fill="#4F4CEE"/>
</g>
<rect x="1.35205" y="0.546265" width="42.1019" height="42.1019" rx="3.5" stroke="#4F4CEE"/>
<defs>
<clipPath id="clip0_167_16661">
<rect width="30.1713" height="30.1713" fill="white" transform="translate(7.31738 6.5116)"/>
</clipPath>
</defs>
</svg>
