<svg width="44" height="44" viewBox="0 0 44 44" fill="none" xmlns="http://www.w3.org/2000/svg">
<rect x="1.35205" y="1.35187" width="42.1019" height="42.1019" rx="3.5" fill="white"/>
<path d="M26.9334 26.7379L26.0814 25.8487L26.9334 26.7379ZM20.9018 32.5171L21.7538 33.4063L20.9018 32.5171ZM20.8985 20.9651L21.752 21.8529L20.8985 20.9651ZM14.8436 26.7348L15.6991 27.6207H15.6991L14.8436 26.7348ZM14.8553 32.5171L15.7073 31.628H15.7073L14.8553 32.5171ZM26.9334 20.9603L26.0814 21.8495L26.9334 20.9603ZM17.8783 18.0666L17.0263 17.1774H17.0263L17.8783 18.0666ZM23.9096 12.2876L23.0576 11.3984L23.9096 12.2876ZM29.9588 18.07L30.8129 18.9571V18.9571L29.9588 18.07ZM23.9132 23.849L24.7652 24.7382L24.7652 24.7382L23.9132 23.849ZM17.8783 23.849L18.7303 22.9598L17.8783 23.849ZM29.9516 12.2876L29.0996 13.1767V13.1767L29.9516 12.2876ZM26.0814 25.8487L20.0498 31.628L21.7538 33.4063L27.7854 27.6271L26.0814 25.8487ZM21.3192 22.2689L21.752 21.8529L20.045 20.0773L19.6122 20.4934L21.3192 22.2689ZM15.6991 27.6207L16.1926 27.1441L14.4817 25.3723L13.9882 25.8489L15.6991 27.6207ZM15.7073 31.628C14.5466 30.5159 14.5433 28.7367 15.6991 27.6207L13.9882 25.8489C11.8266 27.9361 11.8337 31.3275 14.0033 33.4063L15.7073 31.628ZM20.0498 31.628C18.8564 32.7714 16.9007 32.7714 15.7073 31.628L14.0033 33.4063C16.1493 35.4626 19.6078 35.4626 21.7538 33.4063L20.0498 31.628ZM26.0814 21.8495C27.2405 22.9601 27.2405 24.7381 26.0814 25.8487L27.7854 27.6271C29.9564 25.5468 29.9564 22.1514 27.7854 20.0711L26.0814 21.8495ZM27.7854 20.0711C25.6415 18.0169 22.1855 18.0196 20.045 20.0773L21.752 21.8529C22.9401 20.7107 24.8911 20.709 26.0814 21.8495L27.7854 20.0711ZM18.7303 18.9557L24.7616 13.1767L23.0576 11.3984L17.0263 17.1774L18.7303 18.9557ZM29.1047 17.1828L28.6515 17.619L30.3597 19.3934L30.8129 18.9571L29.1047 17.1828ZM23.6862 22.3609L23.0612 22.9598L24.7652 24.7382L25.3902 24.1392L23.6862 22.3609ZM18.7303 22.9598C17.5698 21.8478 17.5698 20.0677 18.7303 18.9557L17.0263 17.1774C14.8538 19.259 14.8538 22.6566 17.0263 24.7382L18.7303 22.9598ZM17.0263 24.7382C19.1691 26.7913 22.6224 26.7913 24.7652 24.7382L23.0612 22.9598C21.871 24.1002 19.9205 24.1002 18.7303 22.9598L17.0263 24.7382ZM29.0996 13.1767C30.2602 14.2888 30.2623 16.0683 29.1047 17.1828L30.8129 18.9571C32.9787 16.8721 32.9743 13.4783 30.8036 11.3984L29.0996 13.1767ZM30.8036 11.3984C28.6588 9.34332 25.2024 9.34332 23.0576 11.3984L24.7616 13.1767C25.9537 12.0345 27.9075 12.0345 29.0996 13.1767L30.8036 11.3984Z" fill="#4F4CEE"/>
<rect x="1.35205" y="1.35187" width="42.1019" height="42.1019" rx="3.5" stroke="#4F4CEE"/>
</svg>
