<svg width="45" height="45" viewBox="0 0 45 45" fill="none" xmlns="http://www.w3.org/2000/svg">
<path d="M41.5283 18.1055H30.2783C30.085 18.1055 29.9268 18.2637 29.9268 18.457V20.5664C29.9268 20.7598 30.085 20.918 30.2783 20.918H41.5283C41.7217 20.918 41.8799 20.7598 41.8799 20.5664V18.457C41.8799 18.2637 41.7217 18.1055 41.5283 18.1055ZM35.6397 24.082H30.2783C30.085 24.082 29.9268 24.2402 29.9268 24.4336V26.543C29.9268 26.7363 30.085 26.8945 30.2783 26.8945H35.6397C35.833 26.8945 35.9912 26.7363 35.9912 26.543V24.4336C35.9912 24.2402 35.833 24.082 35.6397 24.082ZM20.9751 14.1724H19.0723C18.7998 14.1724 18.5801 14.3921 18.5801 14.6646V25.563C18.5801 25.7212 18.6548 25.8662 18.7822 25.9585L25.3257 30.731C25.5454 30.8892 25.853 30.8452 26.0112 30.6255L27.1406 29.083V29.0786C27.2988 28.8589 27.2505 28.5513 27.0308 28.3931L21.4629 24.3677V14.6646C21.4673 14.3921 21.2432 14.1724 20.9751 14.1724Z" fill="#4F4CEE"/>
<path d="M35.3672 29.6147H32.8272C32.5811 29.6147 32.3482 29.7422 32.2163 29.9531C31.6582 30.8364 31.0078 31.6538 30.2608 32.4009C28.9732 33.6885 27.4746 34.6992 25.8091 35.4023C24.0821 36.1318 22.2495 36.501 20.3599 36.501C18.4658 36.501 16.6333 36.1318 14.9107 35.4023C13.2451 34.6992 11.7466 33.6885 10.459 32.4009C9.17142 31.1133 8.16067 29.6147 7.45755 27.9492C6.72806 26.2266 6.35892 24.394 6.35892 22.5C6.35892 20.606 6.72806 18.7778 7.45755 17.0508C8.16067 15.3853 9.17142 13.8867 10.459 12.5991C11.7466 11.3115 13.2451 10.3008 14.9107 9.59765C16.6333 8.86816 18.4702 8.49902 20.3599 8.49902C22.2539 8.49902 24.0865 8.86816 25.8091 9.59765C27.4746 10.3008 28.9732 11.3115 30.2608 12.5991C31.0078 13.3462 31.6582 14.1636 32.2163 15.0469C32.3482 15.2578 32.5811 15.3853 32.8272 15.3853H35.3672C35.6704 15.3853 35.8638 15.0688 35.7276 14.8008C32.8623 9.10107 27.0528 5.39648 20.5664 5.32178C11.0699 5.20312 3.18167 12.977 3.16409 22.4648C3.14651 31.9702 10.8501 39.6826 20.3555 39.6826C26.9253 39.6826 32.8316 35.9648 35.7276 30.1992C35.8638 29.9312 35.666 29.6147 35.3672 29.6147Z" fill="#4F4CEE"/>
</svg>
