<svg width="42" height="42" viewBox="0 0 42 42" fill="none" xmlns="http://www.w3.org/2000/svg">
<path fill-rule="evenodd" clip-rule="evenodd" d="M10.4249 8.6875H31.2749C34.1537 8.6875 36.4874 11.0212 36.4874 13.9V29.5375C36.4874 32.4163 34.1537 34.75 31.2749 34.75H10.4249C7.54612 34.75 5.2124 32.4163 5.2124 29.5375V13.9C5.2124 11.0212 7.54612 8.6875 10.4249 8.6875ZM8.6874 29.5375H24.3249L16.5062 19.1125L8.6874 29.5375ZM27.7999 24.325C30.6787 24.325 33.0124 21.9913 33.0124 19.1125C33.0124 16.2337 30.6787 13.9 27.7999 13.9C24.9211 13.9 22.5874 16.2337 22.5874 19.1125C22.5874 21.9913 24.9211 24.325 27.7999 24.325Z" fill="black"/>
</svg>
