<svg width="132" height="28" viewBox="0 0 132 28" fill="none" xmlns="http://www.w3.org/2000/svg">
<path d="M9.622 24.586C10.0753 24.586 10.642 24.5293 11.322 24.416V27.034C10.5513 27.17 9.76933 27.238 8.976 27.238C7.32133 27.238 6.00667 26.796 5.032 25.912C4.08 25.0053 3.61533 23.634 3.638 21.798L3.672 12.21H0.442V9.66H3.672L3.706 3.676H6.664L6.63 9.66H11.288V12.21H6.63L6.562 21.22C6.562 23.464 7.582 24.586 9.622 24.586ZM15.2463 2.044C15.6317 1.65867 16.085 1.466 16.6063 1.466C17.1277 1.466 17.581 1.65867 17.9663 2.044C18.3517 2.40667 18.5443 2.86 18.5443 3.404C18.5443 3.92533 18.3517 4.37867 17.9663 4.764C17.581 5.12667 17.1277 5.308 16.6063 5.308C16.0623 5.308 15.5977 5.12667 15.2123 4.764C14.8497 4.37867 14.6683 3.92533 14.6683 3.404C14.6683 2.86 14.861 2.40667 15.2463 2.044ZM18.0343 27H15.1103V9.66H18.0343V27ZM31.8976 18.126L37.9836 27H34.4816L29.7896 20.132L25.0296 27H21.5956L27.5456 18.058L21.8676 9.66H25.3356L29.7896 16.154L34.1416 9.66H37.6436L31.8976 18.126ZM42.0176 23.294C42.5843 23.294 43.0603 23.498 43.4456 23.906C43.8536 24.2913 44.0576 24.7673 44.0576 25.334C44.0576 25.878 43.8536 26.354 43.4456 26.762C43.0603 27.1473 42.5843 27.34 42.0176 27.34C41.4736 27.34 41.009 27.1473 40.6236 26.762C40.2383 26.354 40.0456 25.878 40.0456 25.334C40.0456 24.7673 40.2383 24.2913 40.6236 23.906C41.009 23.498 41.4736 23.294 42.0176 23.294ZM54.5307 9.354C56.6614 9.354 58.2934 9.94333 59.4267 11.122C60.5827 12.278 61.1607 13.9327 61.1607 16.086V27H58.2027V24.96C56.8654 26.5467 55.1427 27.34 53.0347 27.34C51.312 27.34 49.9294 26.9093 48.8867 26.048C47.8667 25.164 47.3567 23.9513 47.3567 22.41C47.3567 19.1913 49.476 17.4687 53.7147 17.242L58.2027 16.97V16.154C58.2027 13.3433 56.99 11.938 54.5647 11.938C53.3407 11.938 52.4 12.2893 51.7427 12.992C51.108 13.6947 50.7907 14.5447 50.7907 15.542L47.8327 15.406C47.8327 13.8193 48.4447 12.414 49.6687 11.19C50.8927 9.966 52.5134 9.354 54.5307 9.354ZM58.2367 19.316L54.0887 19.588C51.5727 19.7467 50.3147 20.6647 50.3147 22.342C50.3147 23.9967 51.3687 24.824 53.4767 24.824C54.9047 24.824 56.0494 24.4387 56.9107 23.668C57.7947 22.8747 58.2367 21.662 58.2367 20.03V19.316ZM73.9104 0.445999C74.2731 0.445999 74.7038 0.468666 75.2024 0.513999V3.064C74.8398 3.01867 74.5111 2.996 74.2164 2.996C73.1511 2.996 72.2898 3.32467 71.6324 3.982C70.9978 4.63933 70.6804 5.546 70.6804 6.702V9.66H75.1344V12.21H70.6804V27H67.7564V12.21H64.3904V9.66H67.7564V6.77C67.7564 4.798 68.3118 3.25667 69.4224 2.146C70.5331 1.01267 72.0291 0.445999 73.9104 0.445999ZM86.5507 9.456V12.278C85.0321 12.278 83.8081 12.7313 82.8787 13.638C81.9721 14.5447 81.5187 15.678 81.5187 17.038V27H78.5947V9.66H81.4507V12.278C81.7907 11.4847 82.3914 10.816 83.2527 10.272C84.1141 9.728 85.2134 9.456 86.5507 9.456ZM90.2854 2.044C90.6707 1.65867 91.1241 1.466 91.6454 1.466C92.1667 1.466 92.6201 1.65867 93.0054 2.044C93.3907 2.40667 93.5834 2.86 93.5834 3.404C93.5834 3.92533 93.3907 4.37867 93.0054 4.764C92.6201 5.12667 92.1667 5.308 91.6454 5.308C91.1014 5.308 90.6367 5.12667 90.2514 4.764C89.8887 4.37867 89.7074 3.92533 89.7074 3.404C89.7074 2.86 89.9001 2.40667 90.2854 2.044ZM93.0734 27H90.1494V9.66H93.0734V27ZM106.393 9.354C108.455 9.354 110.201 9.94333 111.629 11.122C113.079 12.278 113.929 13.8533 114.179 15.848L111.323 16.086C111.164 14.794 110.631 13.774 109.725 13.026C108.818 12.2553 107.707 11.87 106.393 11.87C104.738 11.87 103.401 12.448 102.381 13.604C101.361 14.7373 100.851 16.3127 100.851 18.33C100.851 20.3473 101.361 21.934 102.381 23.09C103.423 24.2233 104.761 24.79 106.393 24.79C107.753 24.79 108.863 24.4387 109.725 23.736C110.609 23.0333 111.153 22.07 111.357 20.846L114.213 21.118C113.895 23.0447 113.034 24.5633 111.629 25.674C110.223 26.7847 108.478 27.34 106.393 27.34C103.899 27.34 101.848 26.5353 100.239 24.926C98.652 23.3167 97.8586 21.118 97.8586 18.33C97.8586 15.542 98.652 13.3547 100.239 11.768C101.825 10.1587 103.877 9.354 106.393 9.354ZM124.689 9.354C126.82 9.354 128.452 9.94333 129.585 11.122C130.741 12.278 131.319 13.9327 131.319 16.086V27H128.361V24.96C127.024 26.5467 125.301 27.34 123.193 27.34C121.47 27.34 120.088 26.9093 119.045 26.048C118.025 25.164 117.515 23.9513 117.515 22.41C117.515 19.1913 119.634 17.4687 123.873 17.242L128.361 16.97V16.154C128.361 13.3433 127.148 11.938 124.723 11.938C123.499 11.938 122.558 12.2893 121.901 12.992C121.266 13.6947 120.949 14.5447 120.949 15.542L117.991 15.406C117.991 13.8193 118.603 12.414 119.827 11.19C121.051 9.966 122.672 9.354 124.689 9.354ZM128.395 19.316L124.247 19.588C121.731 19.7467 120.473 20.6647 120.473 22.342C120.473 23.9967 121.527 24.824 123.635 24.824C125.063 24.824 126.208 24.4387 127.069 23.668C127.953 22.8747 128.395 21.662 128.395 20.03V19.316Z" fill="#FC6435"/>
</svg>
