<svg width="65" height="65" viewBox="0 0 65 65" fill="none" xmlns="http://www.w3.org/2000/svg">
<rect width="64.7091" height="64.7091" rx="32.3546" fill="#FC6435"/>
<path d="M58.3742 31.7322C57.773 32.7544 57.773 34.0232 58.3742 35.0454L59.1324 36.3345C59.7335 37.358 59.7335 38.6255 59.1324 39.649L58.3742 40.9381C57.773 41.9603 57.773 43.2291 58.3742 44.2513L59.1324 45.5403C59.7335 46.5639 59.7335 47.8313 59.1324 48.8549L58.9851 49.1057C58.9404 49.1819 58.8588 49.2286 58.7706 49.2286H7.89523C7.70273 49.2286 7.58311 49.0194 7.68077 48.8535C8.28328 47.8313 8.28328 46.5625 7.68077 45.5403L6.92259 44.2499C6.32008 43.2264 6.32008 41.9589 6.92259 40.9354L7.68077 39.6463C8.28328 38.6228 8.28328 37.3553 7.68077 36.3318L6.92259 35.0414C6.32008 34.0192 6.32143 32.7504 6.92259 31.7282L7.68077 30.4378C8.28193 29.4156 8.28193 28.1468 7.68077 27.1246L6.92259 25.8355C6.32143 24.812 6.32143 23.5445 6.92259 22.521L7.68077 21.2319C8.28193 20.2097 8.28193 18.941 7.68077 17.9187L6.92259 16.6297C6.32143 15.6061 6.32143 14.3387 6.92259 13.3151L7.06981 13.0643C7.11453 12.9882 7.19619 12.9414 7.28439 12.9414H58.1597C58.3522 12.9414 58.4718 13.1506 58.3742 13.3165C57.7717 14.3387 57.7717 15.6075 58.3742 16.6297L59.1324 17.9201C59.7349 18.9438 59.7349 20.2111 59.1324 21.2346L58.3742 22.5237C57.7717 23.5474 57.7717 24.8147 58.3742 25.8382L59.1324 27.1286C59.7349 28.1509 59.7335 29.4196 59.1324 30.4418L58.3742 31.7322Z" fill="#FC6435"/>
<path d="M34.7747 27.1221C34.3009 26.4982 33.59 26.0374 32.6956 25.9074L30.8821 25.6439C30.8128 25.5811 25.814 20.6138 25.814 20.6138C24.4306 18.7896 21.4871 18.967 20.4101 21.1492L19.1305 23.7419C18.6647 24.6859 17.7641 25.3402 16.7224 25.4915L13.8611 25.9073C11.2377 26.2885 10.1902 29.5123 12.0885 31.3628L14.4972 33.7707C15.011 34.4656 15.2273 35.3459 15.0788 36.2121L14.59 39.0618C14.3714 40.3365 14.9131 41.4622 15.7967 42.1389L22.8883 49.2305H56.8832L34.7747 27.1221Z" fill="url(#paint0_linear_9533_4589)"/>
<path d="M26.1465 21.1422L27.426 23.7351C27.8919 24.6791 28.7925 25.3333 29.8342 25.4847L32.6955 25.9005C35.3188 26.2817 36.3664 29.5055 34.4681 31.356L32.3976 33.3741C31.6439 34.1089 31.2998 35.1676 31.4778 36.2051L31.9666 39.0549C32.4146 41.6677 29.6723 43.6602 27.3259 42.4266L24.7666 41.0811C23.8349 40.5912 22.7217 40.5912 21.79 41.0811L19.2307 42.4266C16.8843 43.6602 14.1418 41.6677 14.59 39.0549L15.0788 36.2051C15.2567 35.1676 14.9127 34.1089 14.159 33.3741L12.0885 31.356C10.1902 29.5056 11.2377 26.2817 13.8611 25.9005L16.7224 25.4847C17.7641 25.3333 18.6647 24.679 19.1306 23.7351L20.4101 21.1422C21.5835 18.7651 24.9733 18.7651 26.1465 21.1422Z" fill="url(#paint1_linear_9533_4589)"/>
<path d="M17.8693 25.082C17.5207 25.2848 17.1329 25.4234 16.7224 25.483L13.8611 25.8988C11.2377 26.28 10.1902 29.5038 12.0885 31.3543L14.159 33.3724C14.9127 34.1072 15.2567 35.1659 15.0788 36.2034L14.59 39.0532C14.1419 41.666 16.8843 43.6585 19.2307 42.4249L21.79 41.0794C22.7217 40.5895 23.8348 40.5895 24.7666 41.0794L27.3259 42.4249C28.4381 43.0096 29.6388 42.8687 30.5471 42.2813L17.8693 25.082Z" fill="url(#paint2_linear_9533_4589)"/>
<path d="M34.4669 31.3556L32.3967 33.3745C31.9255 33.8335 31.6154 34.4171 31.4922 35.0439C31.4164 35.4217 31.4096 35.8144 31.4773 36.2043L31.9661 39.0545C32.2017 40.4288 31.5545 41.6311 30.547 42.2824C29.6385 42.87 28.4375 43.0108 27.3245 42.4259L24.7654 41.0814C24.2997 40.8363 23.7892 40.7144 23.2773 40.7144V32.4389L23.2963 32.4443L23.2882 32.4362L23.2773 32.42V19.3594C24.4174 19.3594 25.5589 19.9538 26.145 21.1426L27.4245 23.7341C27.7061 24.3069 28.1489 24.7726 28.6864 25.084C29.0344 25.2871 29.423 25.4251 29.8332 25.4847L32.6942 25.9004C34.2106 26.1197 35.2004 27.2896 35.3981 28.5948C35.5446 29.548 35.2684 30.5744 34.4669 31.3556Z" fill="url(#paint3_linear_9533_4589)"/>
<path d="M15.0656 35.0465C15.1402 35.4241 15.1471 35.817 15.0802 36.2069L14.5915 39.0567C14.1434 41.6695 16.8857 43.662 19.2321 42.4284L21.7914 41.0829C22.7232 40.593 23.8363 40.593 24.7681 41.0829L27.3274 42.4284C29.6738 43.662 32.4162 41.6695 31.968 39.0567L31.4793 36.2069C31.3013 35.1694 31.6453 34.1107 32.3991 33.376L34.4695 31.3578C35.2708 30.5766 35.5456 29.5512 35.4 28.5977L15.0656 35.0465Z" fill="url(#paint4_linear_9533_4589)"/>
<path d="M31.4763 36.203C31.4094 35.8131 31.4164 35.4202 31.491 35.0426L11.1564 28.5938C11.0109 29.5472 11.2856 30.5728 12.0869 31.3539L14.1574 33.3721C14.9111 34.1068 15.2551 35.1655 15.0772 36.203L14.5884 39.0528C14.1403 41.6656 16.8827 43.6581 19.2291 42.4245L21.7884 41.079C22.7201 40.5891 23.8332 40.5891 24.765 41.079L27.3243 42.4245C29.6707 43.6581 32.4131 41.6656 31.965 39.0528L31.4763 36.203Z" fill="url(#paint5_linear_9533_4589)"/>
<path d="M32.6967 25.898L29.8354 25.4822C29.4256 25.4227 29.0382 25.2843 28.69 25.082L16.0234 42.289C16.9301 42.8695 18.1249 43.0061 19.2319 42.4241L21.7912 41.0786C22.7229 40.5887 23.836 40.5887 24.7678 41.0786L27.3271 42.4241C29.6735 43.6577 32.416 41.6652 31.9678 39.0524L31.479 36.2026C31.301 35.1651 31.645 34.1064 32.3988 33.3717L34.4693 31.3535C36.3676 29.5032 35.32 26.2792 32.6967 25.898Z" fill="url(#paint6_linear_9533_4589)"/>
<path d="M51.6027 25.803H39.9132C38.9785 25.803 38.2207 25.0453 38.2207 24.1105C38.2207 23.1758 38.9784 22.418 39.9132 22.418H51.6027C52.5373 22.418 53.2952 23.1757 53.2952 24.1105C53.2952 25.0453 52.5375 25.803 51.6027 25.803Z" fill="white" fill-opacity="0.5"/>
<path d="M51.6027 32.7718H39.9132C38.9785 32.7718 38.2207 32.014 38.2207 31.0792C38.2207 30.1446 38.9784 29.3867 39.9132 29.3867H51.6027C52.5373 29.3867 53.2952 30.1444 53.2952 31.0792C53.2952 32.014 52.5375 32.7718 51.6027 32.7718Z" fill="#FAFCFC" fill-opacity="0.5"/>
<path d="M51.6027 39.7483H39.9132C38.9785 39.7483 38.2207 38.9906 38.2207 38.0558C38.2207 37.1211 38.9784 36.3633 39.9132 36.3633H51.6027C52.5373 36.3633 53.2952 37.121 53.2952 38.0558C53.2952 38.9906 52.5375 39.7483 51.6027 39.7483Z" fill="#FAFCFC" fill-opacity="0.5"/>
<defs>
<linearGradient id="paint0_linear_9533_4589" x1="42.3051" y1="47.9903" x2="13.4199" y2="26.7777" gradientUnits="userSpaceOnUse">
<stop stop-color="#F82814" stop-opacity="0"/>
<stop offset="1" stop-color="#C0272D"/>
</linearGradient>
<linearGradient id="paint1_linear_9533_4589" x1="23.2784" y1="22.1788" x2="23.2784" y2="38.0791" gradientUnits="userSpaceOnUse">
<stop stop-color="#FFD945"/>
<stop offset="0.3043" stop-color="#FFCD3E"/>
<stop offset="0.8558" stop-color="#FFAD2B"/>
<stop offset="1" stop-color="#FFA325"/>
</linearGradient>
<linearGradient id="paint2_linear_9533_4589" x1="22.1893" y1="31.95" x2="26.161" y2="21.9305" gradientUnits="userSpaceOnUse">
<stop stop-color="#FBB27E" stop-opacity="0"/>
<stop offset="1" stop-color="#FF7044"/>
</linearGradient>
<linearGradient id="paint3_linear_9533_4589" x1="31.2252" y1="32.0853" x2="16.6022" y2="29.2419" gradientUnits="userSpaceOnUse">
<stop stop-color="#FBB27E" stop-opacity="0"/>
<stop offset="1" stop-color="#FF7044"/>
</linearGradient>
<linearGradient id="paint4_linear_9533_4589" x1="25.2102" y1="38.2228" x2="24.3978" y2="23.9382" gradientUnits="userSpaceOnUse">
<stop stop-color="#FBB27E" stop-opacity="0"/>
<stop offset="1" stop-color="#FF7044"/>
</linearGradient>
<linearGradient id="paint5_linear_9533_4589" x1="20.5463" y1="36.0001" x2="26.9777" y2="27.5375" gradientUnits="userSpaceOnUse">
<stop stop-color="#FBB27E" stop-opacity="0"/>
<stop offset="1" stop-color="#FF7044"/>
</linearGradient>
<linearGradient id="paint6_linear_9533_4589" x1="25.7583" y1="34.6746" x2="16.9572" y2="30.6803" gradientUnits="userSpaceOnUse">
<stop stop-color="#FBB27E" stop-opacity="0"/>
<stop offset="1" stop-color="#FF7044"/>
</linearGradient>
</defs>
</svg>
