<svg width="344" height="253" viewBox="0 0 344 253" fill="none" xmlns="http://www.w3.org/2000/svg">
<path d="M72.2611 86.8006L169.359 40.959H141.926L100.416 5.5852C98.6112 3.78058 96.0846 3.05859 93.5573 3.05859H25.3362C19.1997 3.05859 14.5078 7.75115 14.5078 13.887V86.8006H72.2611Z" fill="#FC6435"/>
<path d="M299.665 86.7986H329.263V51.7854C329.263 45.6489 324.571 40.957 318.435 40.957H278.008L299.665 86.7986Z" fill="#FC6435"/>
<path d="M264.652 7.12444C261.764 0.987904 254.184 -1.89935 247.687 1.34924L64.3203 87.9792H302.552L264.652 7.12444Z" fill="#FC6435" fill-opacity="0.1"/>
<path d="M340.812 71.8785C338.646 70.0505 335.759 69.1367 332.871 69.1367H329.262H299.663H72.26H14.5066H10.8974C8.00946 69.1367 5.12221 70.0505 2.95625 71.8785C0.790294 73.7066 -0.292339 76.1434 0.068308 78.5808L10.8967 244.308C11.2574 249.182 15.9499 252.838 21.7251 252.838H322.042C327.817 252.838 332.51 249.183 332.871 244.308L343.7 78.5808C343.7 76.1434 342.617 73.706 340.812 71.8785Z" fill="#FC6435"/>
</svg>
