<svg width="18" height="18" viewBox="0 0 18 18" fill="none" xmlns="http://www.w3.org/2000/svg">
<path d="M15.7738 4.5077L15.4009 4.88064C15.0962 5.18534 14.6911 5.35314 14.2601 5.35314C13.8292 5.35314 13.4241 5.18534 13.1194 4.88064C12.8147 4.57594 12.6469 4.1708 12.6469 3.73989C12.6469 3.30898 12.8147 2.90384 13.1194 2.5991L13.4923 2.22616L11.2661 0L0 11.2661L2.22616 13.4923L2.5991 13.1194C2.9038 12.8147 3.30894 12.6469 3.73989 12.6469C4.17083 12.6469 4.5759 12.8147 4.88064 13.1194C5.18534 13.4241 5.35314 13.8292 5.35314 14.2601C5.35314 14.691 5.18534 15.0962 4.88064 15.4009L4.5077 15.7738L6.73386 18L18 6.73386L15.7738 4.5077ZM5.96285 15.7372C6.25243 15.3033 6.408 14.7936 6.408 14.2601C6.408 13.5474 6.13048 12.8774 5.62651 12.3735C5.12258 11.8695 4.45254 11.592 3.73989 11.592C3.20636 11.592 2.69673 11.7476 2.2628 12.0371L1.49175 11.2661L11.2661 1.49175L12.0371 2.2628C11.7476 2.69673 11.592 3.20636 11.592 3.73989C11.592 4.45257 11.8695 5.12258 12.3735 5.62651C12.8774 6.13048 13.5475 6.408 14.2601 6.408C14.7936 6.408 15.3033 6.25243 15.7372 5.96285L16.5082 6.73386L6.73386 16.5082L5.96285 15.7372Z" fill="#757575"/>
<path d="M10.5095 6.74144L9.76367 7.4873L10.5125 8.23616L11.2584 7.49029L10.5095 6.74144Z" fill="#757575"/>
<path d="M9.01345 5.24339L8.26758 5.98926L9.01643 6.73811L9.7623 5.99224L9.01345 5.24339Z" fill="#757575"/>
<path d="M12.0076 8.23851L11.2617 8.98438L12.0106 9.73323L12.7564 8.98736L12.0076 8.23851Z" fill="#757575"/>
</svg>
